<?xml version="1.0" standalone="no"?>
<!DOCTYPE svg PUBLIC "-//W3C//DTD SVG 20010904//EN"
 "http://www.w3.org/TR/2001/REC-SVG-20010904/DTD/svg10.dtd">
<svg version="1.0" xmlns="http://www.w3.org/2000/svg"
 width="260.000000pt" height="260.000000pt" viewBox="0 0 260.000000 260.000000"
 preserveAspectRatio="xMidYMid meet">
<metadata>
Created by potrace 1.11, written by Peter Selinger 2001-2013
</metadata>
<g transform="translate(0.000000,260.000000) scale(0.100000,-0.100000)"
fill="#000000" stroke="none">
<path d="M125 2585 c-44 -20 -83 -58 -105 -101 -18 -38 -19 -77 -19 -1174 -1
-741 3 -1148 9 -1172 12 -43 75 -108 121 -125 26 -10 285 -12 1184 -10 1105 2
1151 3 1188 21 21 10 50 35 65 54 l27 35 3 1161 c1 639 0 1175 -3 1191 -6 34
-45 81 -90 111 -29 18 -61 19 -1190 21 -963 1 -1165 -1 -1190 -12z"/>
</g>
</svg>
