<?xml version="1.0" standalone="no"?>
<!DOCTYPE svg PUBLIC "-//W3C//DTD SVG 20010904//EN"
 "http://www.w3.org/TR/2001/REC-SVG-20010904/DTD/svg10.dtd">
<svg version="1.0" xmlns="http://www.w3.org/2000/svg"
 width="1000.000000pt" height="1000.000000pt" viewBox="0 0 1000.000000 1000.000000"
 preserveAspectRatio="xMidYMid meet">
<metadata>
Created by potrace 1.11, written by Peter Selinger 2001-2013
</metadata>
<g transform="translate(0.000000,1000.000000) scale(0.100000,-0.100000)"
fill="#000000" stroke="none">
<path d="M4110 8401 c0 -6 4 -13 10 -16 6 -3 7 1 4 9 -7 18 -14 21 -14 7z"/>
<path d="M3875 8371 c-3 -5 -2 -12 3 -15 5 -3 9 1 9 9 0 17 -3 19 -12 6z"/>
<path d="M3713 8355 c0 -8 4 -12 9 -9 5 3 6 10 3 15 -9 13 -12 11 -12 -6z"/>
<path d="M3750 8356 c7 -7 13 -7 20 0 6 6 3 10 -10 10 -13 0 -16 -4 -10 -10z"/>
<path d="M4155 8351 c-3 -5 -2 -12 3 -15 5 -3 9 1 9 9 0 17 -3 19 -12 6z"/>
<path d="M3493 8335 c0 -8 4 -12 9 -9 5 3 6 10 3 15 -9 13 -12 11 -12 -6z"/>
<path d="M3785 8340 c-3 -6 1 -7 9 -4 18 7 21 14 7 14 -6 0 -13 -4 -16 -10z"/>
<path d="M3910 8340 c-9 -6 -10 -10 -3 -10 6 0 15 5 18 10 8 12 4 12 -15 0z"/>
<path d="M4025 8340 c-3 -6 1 -7 9 -4 18 7 21 14 7 14 -6 0 -13 -4 -16 -10z"/>
<path d="M4230 8340 c-9 -6 -10 -10 -3 -10 6 0 15 5 18 10 8 12 4 12 -15 0z"/>
<path d="M4256 8333 c-6 -14 -5 -15 5 -6 7 7 10 15 7 18 -3 3 -9 -2 -12 -12z"/>
<path d="M3819 8333 c-1 -5 -1 -11 0 -15 1 -11 -63 -6 -78 6 -11 8 -13 8 -7
-1 4 -7 2 -13 -3 -13 -6 0 -11 6 -11 13 0 8 -3 8 -8 2 -4 -6 -20 -12 -37 -13
-23 -1 -26 1 -15 8 9 6 10 10 3 10 -6 0 -15 -4 -18 -10 -3 -5 -14 -10 -23 -10
-15 0 -15 2 -2 10 12 7 10 9 -7 7 -12 0 -19 -5 -17 -9 3 -4 -7 -8 -21 -8 -14
0 -24 4 -21 8 3 5 -1 9 -9 9 -8 0 -12 -4 -9 -9 4 -7 -53 -13 -79 -9 -5 1 -6
-3 -2 -8 3 -6 12 -8 19 -5 17 7 19 -45 2 -65 -8 -12 -8 -13 2 -7 7 4 12 1 12
-9 0 -11 -7 -14 -26 -11 -15 3 -23 2 -19 -2 3 -4 11 -8 16 -8 5 -1 13 -2 18
-3 13 -1 10 -134 -3 -143 -7 -5 -7 -8 2 -8 6 0 12 -9 12 -21 0 -13 -4 -18 -12
-13 -10 6 -10 4 -2 -7 15 -18 18 -123 4 -114 -5 3 -10 1 -10 -4 0 -6 4 -11 9
-11 5 0 9 -13 9 -29 -1 -15 2 -33 6 -40 7 -10 -6 -16 -27 -12 -5 1 -6 -3 -2
-9 3 -6 10 -8 15 -5 13 8 8 -39 -5 -47 -6 -5 -6 -8 3 -8 6 0 12 -9 12 -21 0
-13 -4 -18 -12 -13 -10 6 -10 4 -2 -7 6 -8 12 -38 13 -68 1 -47 -1 -53 -16
-47 -17 6 -17 5 -1 -7 13 -11 17 -28 15 -78 -1 -35 -6 -67 -12 -71 -6 -5 -6
-8 3 -8 6 0 12 -9 12 -21 0 -13 -4 -18 -12 -13 -10 6 -10 4 -2 -7 15 -18 18
-123 4 -114 -5 3 -10 1 -10 -4 0 -6 4 -11 9 -11 5 0 9 -13 9 -29 -1 -15 2 -33
6 -40 7 -10 -6 -16 -27 -12 -5 1 -6 -3 -2 -9 3 -6 10 -8 15 -5 13 8 8 -39 -5
-47 -6 -5 -6 -8 3 -8 6 0 12 -9 12 -21 0 -13 -4 -18 -12 -13 -10 6 -10 4 -2
-7 6 -8 12 -38 13 -68 1 -47 -1 -53 -16 -47 -16 6 -17 5 -2 -7 13 -10 17 -30
16 -90 0 -43 -4 -80 -9 -83 -5 -3 -4 -12 2 -19 8 -10 7 -16 -6 -23 -15 -8 -15
-10 0 -15 9 -4 16 -16 16 -27 0 -12 -4 -19 -8 -16 -5 3 -9 -1 -9 -9 0 -8 4
-12 9 -9 4 3 8 -2 8 -11 0 -11 -7 -14 -26 -11 -15 3 -23 2 -19 -2 3 -4 11 -8
16 -8 5 -1 13 -2 18 -3 13 -1 10 -103 -3 -120 -8 -11 -8 -13 2 -7 8 5 12 1 12
-10 0 -10 -3 -14 -7 -11 -8 9 -33 -12 -33 -27 0 -6 5 -3 11 7 6 9 14 15 20 12
13 -9 11 -53 -3 -58 -10 -4 -10 -6 0 -6 6 -1 12 -13 12 -27 0 -14 -4 -23 -9
-20 -5 3 -15 -2 -22 -12 -13 -15 -12 -16 3 -4 12 10 18 10 23 1 4 -6 1 -15 -6
-20 -10 -6 -11 -9 -1 -9 6 0 12 -9 12 -21 0 -13 -4 -18 -12 -13 -10 6 -10 4
-2 -7 16 -20 17 -99 1 -99 -8 0 -7 -4 3 -10 12 -7 13 -13 3 -28 -9 -15 -9 -22
0 -31 9 -9 8 -14 -3 -21 -12 -8 -11 -10 5 -10 16 0 17 -2 5 -9 -8 -6 -18 -7
-24 -4 -5 3 -6 1 -2 -6 4 -6 11 -9 15 -7 4 3 8 -12 9 -34 1 -29 -2 -40 -16
-43 -16 -4 -16 -5 1 -6 11 -1 17 -9 17 -27 0 -14 -4 -23 -10 -19 -5 3 -10 1
-10 -4 0 -6 4 -11 9 -11 13 0 12 -78 -1 -86 -5 -3 -4 -11 2 -19 8 -10 7 -16
-6 -23 -15 -8 -15 -10 0 -15 9 -4 16 -16 16 -27 0 -12 -4 -19 -8 -16 -5 3 -9
-1 -9 -9 0 -8 4 -12 9 -9 4 3 8 -2 8 -11 0 -11 -7 -14 -26 -11 -15 3 -23 2
-19 -2 3 -4 11 -8 16 -8 5 -1 13 -2 18 -3 13 -1 10 -134 -3 -143 -7 -5 -7 -8
2 -8 6 0 12 -9 12 -21 0 -13 -4 -18 -12 -13 -10 6 -10 4 -2 -7 15 -18 18 -123
4 -114 -5 3 -10 1 -10 -4 0 -6 4 -11 9 -11 5 0 9 -13 9 -29 -1 -15 2 -33 6
-40 7 -10 -6 -16 -27 -12 -5 1 -6 -3 -2 -9 3 -6 10 -8 15 -5 13 8 8 -39 -5
-47 -6 -5 -6 -8 3 -8 6 0 12 -9 12 -21 0 -13 -4 -18 -12 -13 -10 6 -10 4 -2
-7 6 -8 12 -38 13 -68 1 -47 -1 -53 -16 -47 -17 6 -17 5 -1 -7 13 -10 16 -29
16 -87 -1 -41 -5 -80 -10 -87 -5 -7 -5 -14 2 -18 8 -5 8 -10 0 -20 -8 -9 -8
-15 0 -20 5 -3 10 -13 10 -22 0 -13 -2 -14 -17 -2 -14 12 -14 10 2 -14 16 -24
16 -30 4 -38 -12 -7 -12 -9 1 -10 10 0 8 -3 -5 -9 -17 -7 -17 -9 -2 -9 9 -1
17 -6 17 -12 0 -5 -4 -8 -9 -4 -5 3 -13 1 -16 -5 -4 -6 -1 -9 6 -8 9 2 13 -10
14 -35 1 -30 -2 -36 -15 -32 -11 4 -11 2 2 -8 10 -8 15 -17 11 -20 -3 -4 -13
-1 -22 5 -15 12 -15 11 0 -7 18 -24 23 -65 6 -65 -8 0 -8 -3 0 -11 13 -13 6
-42 -7 -34 -5 3 -12 1 -15 -5 -4 -6 -1 -9 6 -8 13 3 19 -29 9 -47 -4 -5 -6
-17 -5 -25 2 -28 -44 -150 -57 -150 -4 0 -10 9 -13 21 -4 11 -9 18 -12 16 -2
-3 0 -15 6 -26 9 -16 8 -26 -5 -46 -12 -18 -19 -22 -24 -14 -5 8 -10 5 -14 -8
-4 -11 -17 -25 -31 -31 -20 -9 -26 -8 -35 6 -10 15 -10 14 -5 -4 5 -18 2 -21
-22 -18 -15 1 -34 -3 -42 -9 -12 -9 -13 -9 -7 1 4 6 3 12 -3 12 -5 0 -13 -5
-16 -10 -4 -6 -12 -7 -18 -3 -7 4 -23 8 -37 9 -14 1 -27 3 -30 4 -3 1 -13 2
-22 1 -10 -1 -18 3 -18 9 0 7 -7 9 -16 6 -10 -4 -22 1 -31 11 -8 10 -12 13 -8
6 3 -7 -14 -4 -44 9 -29 12 -48 25 -44 31 4 6 0 8 -11 4 -9 -4 -15 -3 -12 2 3
5 -1 12 -10 15 -10 4 -13 2 -9 -7 4 -6 0 -3 -9 7 -8 10 -13 22 -11 26 2 4 -7
5 -22 2 -18 -3 -24 -1 -19 7 4 6 1 11 -6 11 -8 0 -23 7 -34 15 -16 12 -17 16
-4 24 8 5 17 8 20 6 4 -2 7 2 7 10 0 11 -7 9 -29 -6 -25 -19 -33 -18 -29 4 0
4 -4 7 -9 7 -14 0 -130 116 -130 130 0 5 -3 9 -7 9 -23 -4 -31 3 -28 21 2 11
1 19 -3 19 -25 -4 -33 3 -27 24 4 15 3 18 -3 9 -7 -11 -10 -11 -15 3 -5 12
-11 14 -26 6 -10 -6 -22 -7 -26 -3 -5 4 -5 1 -1 -5 4 -8 1 -13 -9 -13 -9 0
-15 -3 -13 -7 2 -5 -11 -22 -29 -40 -18 -17 -33 -30 -33 -27 0 2 -31 -28 -69
-66 -38 -38 -72 -66 -75 -63 -3 4 -6 -1 -6 -10 0 -11 -5 -14 -17 -10 -13 5
-15 2 -10 -11 4 -9 3 -15 -1 -12 -5 3 -15 -4 -22 -15 -8 -10 -21 -19 -29 -19
-8 0 -12 -3 -8 -6 5 -5 -48 -64 -58 -64 -2 0 -5 6 -8 13 -2 6 -3 4 -1 -6 3
-21 -34 -59 -49 -50 -6 3 -7 1 -3 -5 7 -12 -28 -35 -38 -24 -4 3 -4 -2 0 -13
7 -17 6 -18 -8 -7 -14 11 -16 11 -12 -6 4 -13 -9 -31 -47 -63 -29 -24 -69 -61
-89 -81 l-37 -36 24 -26 c12 -14 23 -30 23 -36 0 -5 8 -10 18 -11 11 -1 9 -4
-8 -9 l-25 -8 28 -1 c15 -1 27 -5 27 -11 0 -5 7 -10 16 -10 8 0 12 -5 9 -10
-4 -6 -12 -7 -18 -3 -7 4 -5 -2 3 -13 22 -29 24 -30 17 -11 -6 15 -4 16 13 7
11 -6 20 -13 20 -16 0 -3 -4 -3 -8 0 -5 3 -9 -1 -9 -8 0 -8 6 -12 13 -9 7 3
40 -22 73 -56 34 -33 61 -57 61 -54 0 4 6 -2 14 -12 8 -11 12 -24 9 -30 -4 -5
-3 -7 2 -3 4 4 17 2 28 -4 20 -10 20 -11 -4 -25 -22 -13 -11 -12 26 3 18 7 20
-12 3 -20 -7 -3 -1 -3 15 -1 15 2 25 0 22 -6 -4 -5 -1 -9 5 -9 6 0 20 -9 32
-20 12 -11 28 -20 35 -20 8 0 11 -4 8 -10 -3 -5 1 -10 10 -10 8 0 18 -7 21
-15 4 -8 10 -12 15 -9 5 3 9 0 9 -6 0 -6 5 -8 10 -5 6 3 10 -2 11 -12 0 -10 3
-13 5 -6 7 15 64 -17 57 -32 -2 -7 3 -12 11 -12 8 0 13 4 10 9 -3 4 0 8 5 8 6
0 11 -4 11 -9 0 -5 9 -13 20 -16 11 -4 18 -10 15 -15 -3 -4 4 -6 15 -3 12 3
22 -1 26 -11 3 -9 10 -13 15 -10 5 3 9 -1 9 -8 0 -9 2 -10 8 -2 5 9 11 8 20
-2 10 -10 10 -14 1 -14 -7 0 -10 -3 -6 -6 3 -3 12 -2 19 2 19 12 39 14 32 3
-3 -5 4 -9 15 -9 11 0 23 -5 26 -10 4 -6 11 -8 16 -5 5 4 9 0 9 -7 0 -9 3 -9
10 2 7 11 10 11 10 2 0 -7 5 -10 10 -7 6 3 10 1 10 -5 0 -6 5 -8 10 -5 6 3 10
1 10 -4 0 -6 5 -11 11 -11 5 0 7 4 4 10 -3 5 10 3 28 -5 19 -8 37 -11 40 -8 4
3 12 1 19 -4 7 -6 21 -9 30 -8 10 2 20 -1 23 -5 3 -5 -4 -7 -16 -5 -12 2 -19
1 -15 -3 10 -9 66 -10 60 0 -3 4 0 8 5 8 6 0 11 -8 12 -17 0 -15 2 -15 9 2 5
11 9 14 9 7 1 -7 6 -10 11 -7 6 3 10 -1 10 -10 0 -10 -5 -13 -12 -9 -7 4 -9 3
-5 -1 13 -15 34 -13 33 2 -1 18 31 26 41 11 4 -7 1 -8 -8 -3 -8 5 -5 -1 5 -13
21 -25 36 -31 16 -7 -7 8 -9 15 -4 16 25 3 60 -4 66 -15 5 -7 8 -3 9 9 0 11 2
15 5 10 2 -6 31 -9 64 -7 43 2 60 -1 60 -10 0 -9 3 -8 10 2 8 12 13 13 29 3
17 -11 19 -10 14 2 -4 13 -1 14 21 5 14 -5 26 -6 26 -1 0 11 39 2 60 -13 8 -6
6 0 -5 12 -14 17 -16 23 -5 20 8 -2 20 -11 26 -22 10 -17 12 -17 17 -2 5 11 3
15 -5 10 -7 -4 -8 -3 -4 4 10 16 39 15 31 -1 -4 -6 0 -4 8 5 11 14 16 15 27 5
10 -10 11 -9 5 2 -6 10 -4 12 4 7 6 -4 17 -4 24 1 17 13 36 10 48 -7 8 -12 9
-10 4 7 -5 20 -3 21 29 18 26 -2 33 0 29 11 -4 10 0 12 11 8 10 -4 16 -1 16 7
0 11 3 11 10 -1 9 -13 10 -13 11 0 0 10 3 8 9 -5 7 -16 9 -16 9 -4 1 10 19 26
42 37 31 16 39 17 35 6 -3 -9 -1 -12 4 -9 6 3 10 13 10 22 0 9 3 13 6 10 4 -4
20 3 37 15 26 19 30 19 24 4 -4 -10 -3 -15 3 -11 6 3 10 12 10 20 0 9 8 12 21
10 18 -4 19 -2 8 11 -7 8 -8 14 -3 12 12 -4 84 44 84 55 0 5 5 5 10 2 6 -4 8
-10 6 -14 -3 -4 1 -8 9 -8 10 0 12 4 5 12 -12 14 36 68 51 59 5 -3 8 0 7 7 -2
6 3 14 11 17 8 2 11 0 8 -5 -3 -5 0 -10 8 -10 11 0 12 4 4 13 -17 20 0 35 32
30 16 -2 31 0 34 4 3 5 -3 7 -15 5 -34 -7 -33 14 4 49 20 18 36 39 36 46 0 7
7 10 16 6 8 -3 13 -2 9 3 -6 11 24 70 47 92 10 9 15 19 11 23 -3 3 -1 6 5 6 7
0 11 3 10 7 -4 19 15 62 25 56 6 -4 8 0 4 10 -3 10 -2 17 3 17 6 0 10 -6 10
-12 0 -9 4 -8 10 2 9 14 14 7 11 -13 -1 -5 3 -6 9 -2 8 5 8 11 -1 21 -6 7 -15
12 -19 9 -5 -3 -11 -1 -15 5 -3 5 -2 10 2 10 8 0 12 15 15 57 1 9 5 10 14 2 8
-7 14 -6 20 2 4 8 3 9 -4 5 -14 -8 -12 20 2 43 6 10 5 12 -2 7 -7 -4 -12 -3
-12 3 0 5 5 11 11 13 6 2 12 16 12 31 0 16 5 27 13 27 8 0 14 5 14 11 0 5 -5
7 -11 4 -6 -4 -9 0 -7 11 2 11 10 22 18 26 12 5 11 7 -4 7 -19 1 -19 2 3 22
17 16 19 24 11 34 -14 16 -7 70 12 92 11 14 11 16 -1 8 -11 -6 -13 -4 -8 9 4
10 7 29 7 42 0 14 4 23 8 20 4 -2 14 0 22 5 12 8 11 9 -4 7 -15 -2 -20 3 -21
24 -1 16 4 29 13 33 11 4 12 8 3 19 -8 10 -9 16 -1 21 5 3 10 12 10 18 0 8 -3
8 -9 -1 -4 -8 -7 7 -7 36 1 27 8 58 16 68 9 10 10 15 3 10 -9 -5 -13 0 -13 15
0 18 2 19 15 9 13 -11 14 -10 9 4 -3 9 -10 16 -15 16 -5 0 -9 8 -9 18 0 14 2
15 10 2 8 -13 10 -12 10 3 0 9 -4 17 -10 17 -9 0 -6 57 4 68 3 3 0 12 -7 20
-10 13 -9 15 8 9 20 -7 20 -7 1 8 -11 8 -15 15 -9 15 12 0 25 38 15 44 -4 2
-7 27 -6 55 1 30 -3 51 -9 51 -6 0 -3 6 8 13 14 11 15 16 5 22 -9 6 -11 4 -5
-5 5 -8 4 -11 -3 -6 -8 4 -6 17 5 43 13 32 13 35 0 25 -12 -10 -14 -8 -12 10
2 13 7 32 11 42 5 14 4 17 -5 11 -10 -6 -11 -3 -1 15 7 13 8 25 3 29 -10 7 -9
37 3 65 5 14 4 17 -5 11 -10 -6 -11 -3 -1 15 7 13 8 25 3 29 -10 7 -9 37 3 65
5 14 4 17 -5 11 -10 -6 -11 -3 -1 15 7 13 8 25 3 29 -10 7 -9 37 3 65 5 14 4
17 -4 12 -8 -5 -10 -2 -6 8 3 9 10 13 15 10 5 -3 6 2 3 10 -3 9 -10 16 -14 16
-8 0 -5 36 6 64 5 13 4 17 -4 12 -8 -5 -10 -2 -6 8 3 9 11 13 17 9 6 -3 7 -1
3 5 -10 16 12 54 26 46 7 -5 8 -2 3 6 -6 10 -12 8 -26 -8 -9 -12 -19 -22 -22
-22 -6 0 -1 41 9 64 5 14 4 17 -5 12 -8 -5 -7 3 4 24 9 17 14 34 11 38 -3 3
-6 0 -6 -6 0 -7 -4 -12 -9 -12 -9 0 -7 35 5 64 5 14 4 17 -5 11 -10 -6 -11 -3
-1 15 7 13 8 25 3 29 -10 7 -9 37 3 65 5 14 4 17 -5 11 -10 -6 -11 -3 -1 15 7
13 8 25 3 29 -10 7 -9 37 3 65 5 14 4 17 -5 11 -10 -6 -11 -3 -1 15 7 13 8 25
3 29 -10 7 -9 37 3 65 5 14 4 17 -5 11 -11 -6 -11 -3 -1 16 10 18 10 24 1 27
-8 3 -6 8 5 16 13 10 14 15 4 21 -9 6 -11 4 -5 -5 5 -9 4 -11 -3 -6 -9 5 -9
13 -1 28 6 11 7 23 2 27 -10 7 -9 37 3 65 5 14 4 17 -5 11 -10 -6 -11 -3 -1
15 7 13 8 25 3 29 -10 7 -9 37 3 65 5 14 4 17 -5 11 -10 -6 -11 -3 -1 15 7 13
8 25 3 29 -10 7 -9 37 3 65 5 14 4 17 -5 11 -10 -6 -11 -3 -1 15 7 13 8 25 3
29 -10 7 -9 37 3 65 5 14 4 17 -4 12 -8 -5 -10 -2 -6 8 3 9 10 13 15 10 5 -3
6 2 3 10 -3 9 -10 16 -14 16 -8 0 -5 36 6 64 5 13 4 17 -4 12 -8 -5 -10 -2 -6
8 3 9 11 13 17 9 6 -3 7 -1 3 5 -10 16 12 54 26 46 7 -5 8 -2 3 6 -6 10 -12 8
-26 -8 -9 -12 -19 -22 -22 -22 -6 0 -1 41 9 64 5 14 4 17 -5 12 -8 -5 -7 3 4
24 9 17 14 34 11 38 -3 3 -6 0 -6 -6 0 -7 -4 -12 -9 -12 -9 0 -7 35 5 64 5 14
4 17 -5 11 -10 -6 -11 -3 -1 15 7 13 8 25 3 29 -10 7 -9 37 3 65 5 14 4 17 -5
11 -10 -6 -11 -3 -1 15 7 13 8 25 3 29 -10 7 -9 37 3 65 5 14 4 17 -5 11 -10
-6 -11 -3 -1 15 7 13 8 25 3 29 -10 7 -9 37 3 65 5 14 4 17 -5 11 -11 -6 -11
-3 -1 16 10 18 10 24 1 27 -8 3 -6 8 5 16 13 10 14 15 4 21 -9 6 -11 4 -5 -5
5 -9 4 -11 -3 -6 -9 5 -9 13 -1 28 6 11 7 23 2 27 -10 7 -9 37 3 65 5 14 4 17
-5 11 -10 -6 -11 -3 -1 15 7 13 8 25 3 29 -10 7 -9 37 3 65 5 14 4 17 -5 11
-10 -6 -11 -3 -1 15 7 13 8 25 3 29 -10 7 -9 37 3 65 5 14 4 17 -5 11 -10 -6
-11 -3 -1 15 7 13 8 25 3 29 -10 7 -9 37 3 65 5 14 4 17 -5 11 -10 -6 -11 -3
-1 15 7 13 8 25 3 29 -10 7 -9 37 3 65 5 14 4 17 -5 12 -7 -5 -3 11 9 34 14
27 18 46 12 52 -6 6 -12 5 -17 -3 -6 -8 -4 -10 5 -4 10 6 12 4 7 -9 -4 -10 -7
-20 -7 -22 0 -2 -4 -4 -9 -4 -9 0 -7 35 5 64 5 14 4 17 -5 11 -10 -6 -11 -3
-2 13 14 27 14 45 -1 36 -6 -4 -8 -3 -5 3 3 5 8 25 11 44 3 19 3 28 0 22 -4
-8 -26 -13 -60 -13 -31 0 -53 4 -50 8 3 5 -1 9 -9 9 -8 0 -12 -4 -9 -9 8 -13
-10 -10 -25 5 -11 10 -13 10 -7 0 4 -7 2 -13 -3 -13 -6 0 -11 6 -11 13 0 9 -2
9 -8 0 -10 -16 -144 -14 -154 1 -5 8 -8 7 -8 -1 0 -7 -6 -13 -14 -13 -8 0 -17
6 -19 13 -4 10 -6 10 -6 0 -1 -7 -6 -13 -12 -13 -6 0 -8 8 -5 18 5 15 5 15 -6
2 -16 -19 -60 -23 -70 -7 -6 9 -8 9 -8 0 0 -7 -9 -13 -21 -13 -16 0 -20 4 -15
18 6 16 5 16 -7 0 -10 -13 -26 -17 -63 -14 -31 1 -48 7 -46 14 1 7 0 12 -3 12
-3 0 -6 -3 -6 -7z m601 -4217 c0 -3 -4 -8 -10 -11 -5 -3 -10 -1 -10 4 0 6 5
11 10 11 6 0 10 -2 10 -4z"/>
<path d="M3868 8333 c7 -3 16 -2 19 1 4 3 -2 6 -13 5 -11 0 -14 -3 -6 -6z"/>
<path d="M4188 8333 c7 -3 16 -2 19 1 4 3 -2 6 -13 5 -11 0 -14 -3 -6 -6z"/>
<path d="M3459 8098 c-5 -18 -6 -38 -1 -34 7 8 12 36 6 36 -2 0 -4 -1 -5 -2z"/>
<path d="M4486 8078 c3 -5 10 -6 15 -3 13 9 11 12 -6 12 -8 0 -12 -4 -9 -9z"/>
<path d="M4487 8042 c-20 -22 -21 -32 -5 -32 6 0 8 3 5 7 -4 3 0 15 10 25 9
10 14 18 11 18 -3 0 -12 -8 -21 -18z"/>
<path d="M4465 7930 c-3 -6 1 -7 9 -4 18 7 21 14 7 14 -6 0 -13 -4 -16 -10z"/>
<path d="M4515 7929 c-4 -6 -5 -12 -2 -15 2 -3 7 2 10 11 7 17 1 20 -8 4z"/>
<path d="M4473 7888 c1 -15 6 -23 11 -18 4 4 4 16 -2 26 -9 16 -10 14 -9 -8z"/>
<path d="M4506 7882 c-3 -5 1 -9 9 -9 8 0 12 4 9 9 -3 4 -7 8 -9 8 -2 0 -6 -4
-9 -8z"/>
<path d="M3436 7822 c-2 -4 -1 -14 4 -22 7 -11 9 -9 7 8 -1 24 -3 26 -11 14z"/>
<path d="M4471 7817 c-8 -10 -7 -14 2 -14 8 0 14 6 14 14 0 7 -1 13 -2 13 -2
0 -8 -6 -14 -13z"/>
<path d="M4470 7779 c0 -5 5 -7 10 -4 6 3 10 8 10 11 0 2 -4 4 -10 4 -5 0 -10
-5 -10 -11z"/>
<path d="M4476 7738 c3 -5 10 -6 15 -3 13 9 11 12 -6 12 -8 0 -12 -4 -9 -9z"/>
<path d="M4470 7663 c0 -21 45 -40 55 -23 3 5 -4 7 -15 5 -11 -2 -24 3 -30 13
-5 9 -10 12 -10 5z"/>
<path d="M4510 7600 c0 -5 5 -10 11 -10 5 0 7 5 4 10 -3 6 -8 10 -11 10 -2 0
-4 -4 -4 -10z"/>
<path d="M3439 7573 c-13 -16 -12 -17 4 -4 9 7 17 15 17 17 0 8 -8 3 -21 -13z"/>
<path d="M4470 7575 c-11 -13 -10 -14 4 -9 9 3 16 10 16 15 0 13 -6 11 -20 -6z"/>
<path d="M3455 7529 c-4 -6 -5 -12 -2 -15 2 -3 7 2 10 11 7 17 1 20 -8 4z"/>
<path d="M4479 7513 c-12 -16 -12 -17 2 -6 9 7 20 9 24 5 5 -4 5 -1 1 6 -9 16
-11 15 -27 -5z"/>
<path d="M6577 7483 c-4 -3 -7 -42 -7 -86 0 -75 -1 -79 -17 -65 -69 60 -193
25 -234 -66 -47 -103 0 -235 95 -266 40 -13 100 -6 131 14 22 14 25 15 25 1 0
-11 11 -15 45 -15 42 0 45 2 46 28 1 34 1 362 0 420 -1 42 -1 42 -39 42 -21 0
-42 -3 -45 -7z m-28 -238 c52 -51 21 -158 -49 -168 -38 -6 -74 10 -93 42 -62
105 58 211 142 126z"/>
<path d="M7357 7481 c-2 -3 -3 -112 -3 -241 l1 -235 48 -3 c27 -2 46 1 45 6
-4 14 7 13 49 -4 77 -33 166 7 204 91 36 79 14 189 -48 233 -35 25 -100 41
-128 32 -11 -4 -30 -10 -42 -15 -13 -4 -23 -12 -23 -18 0 -6 -3 -7 -7 -3 -5 4
-9 38 -9 74 -1 37 -2 72 -3 79 -1 12 -79 16 -84 4z m203 -207 c37 -8 70 -53
70 -97 0 -123 -166 -136 -185 -15 -7 43 15 90 49 107 26 12 27 12 66 5z"/>
<path d="M3454 7440 c0 -13 4 -16 10 -10 7 7 7 13 0 20 -6 6 -10 3 -10 -10z"/>
<path d="M4469 7373 c-12 -16 -12 -17 2 -6 9 7 20 9 24 5 5 -4 5 -1 1 6 -9 16
-11 15 -27 -5z"/>
<path d="M5288 7352 l-28 -3 0 -175 0 -174 45 0 45 0 0 99 c0 138 19 181 79
181 40 0 54 -42 55 -163 l1 -112 45 -3 45 -3 0 94 c0 52 3 108 7 125 16 62 92
81 115 29 6 -12 11 -70 11 -127 1 -58 1 -108 1 -112 1 -5 21 -8 44 -8 l44 0 1
123 c0 67 -4 139 -9 159 -20 77 -118 104 -194 52 -21 -14 -41 -21 -44 -17 -30
44 -115 56 -168 23 -31 -18 -33 -19 -33 -2 0 18 -9 20 -62 14z"/>
<path d="M5954 7341 c-123 -75 -119 -267 7 -332 45 -23 113 -20 154 7 23 15
25 15 25 0 0 -12 10 -16 45 -16 l45 0 -1 175 -2 176 -46 -3 c-27 -2 -45 -8
-44 -14 1 -7 -13 -4 -35 7 -46 24 -108 24 -148 0z m157 -92 c21 -20 29 -36 29
-63 0 -65 -29 -101 -90 -110 -53 -7 -103 54 -94 115 13 81 96 113 155 58z"/>
<path d="M6835 7343 c-35 -18 -68 -50 -83 -78 -30 -57 -21 -151 20 -206 61
-82 221 -88 292 -10 18 20 18 20 -18 37 -34 17 -38 17 -71 1 -20 -9 -46 -17
-58 -17 -31 0 -83 34 -90 59 -5 21 -2 21 133 21 136 0 139 0 142 23 5 31 -18
97 -46 130 -47 54 -157 74 -221 40z m144 -81 c45 -33 36 -39 -59 -40 -49 0
-90 3 -90 7 0 4 10 17 23 28 38 35 83 37 126 5z"/>
<path d="M7784 7352 l-32 -3 55 -132 c31 -73 60 -146 66 -164 10 -33 8 -42
-45 -145 l-18 -38 48 0 48 0 107 235 c59 130 105 239 103 244 -3 4 -15 7 -28
5 -13 -1 -30 -3 -39 -3 -15 -1 -30 -28 -93 -165 l-22 -50 -43 106 c-45 110
-51 116 -107 110z"/>
<path d="M4470 7338 c0 -4 4 -8 9 -8 6 0 12 4 15 8 3 5 -1 9 -9 9 -8 0 -15 -4
-15 -9z"/>
<path d="M4475 7310 c-3 -6 1 -7 9 -4 18 7 21 14 7 14 -6 0 -13 -4 -16 -10z"/>
<path d="M4465 7250 c-4 -6 -3 -10 2 -9 4 1 10 0 13 -1 18 -7 41 -7 45 0 3 5
-3 7 -12 5 -10 -1 -23 2 -30 7 -7 6 -14 5 -18 -2z"/>
<path d="M4510 7201 c0 -6 4 -13 10 -16 6 -3 7 1 4 9 -7 18 -14 21 -14 7z"/>
<path d="M4475 7191 c-3 -5 -2 -12 3 -15 5 -3 9 1 9 9 0 17 -3 19 -12 6z"/>
<path d="M3436 7182 c-2 -4 -1 -14 4 -22 7 -11 9 -9 7 8 -1 24 -3 26 -11 14z"/>
<path d="M4470 7098 c0 -4 4 -8 9 -8 6 0 12 4 15 8 3 5 -1 9 -9 9 -8 0 -15 -4
-15 -9z"/>
<path d="M4465 7010 c-4 -6 -3 -10 2 -9 4 1 10 0 13 -1 18 -7 41 -7 45 0 3 5
-3 7 -12 5 -10 -1 -23 2 -30 7 -7 6 -14 5 -18 -2z"/>
<path d="M4510 6960 c0 -5 5 -10 11 -10 5 0 7 5 4 10 -3 6 -8 10 -11 10 -2 0
-4 -4 -4 -10z"/>
<path d="M3439 6933 c-13 -16 -12 -17 4 -4 9 7 17 15 17 17 0 8 -8 3 -21 -13z"/>
<path d="M4475 6940 c3 -5 8 -10 11 -10 2 0 4 5 4 10 0 6 -5 10 -11 10 -5 0
-7 -4 -4 -10z"/>
<path d="M3455 6889 c-4 -6 -5 -12 -2 -15 2 -3 7 2 10 11 7 17 1 20 -8 4z"/>
<path d="M3453 6792 c-1 -22 0 -24 9 -8 6 10 6 22 2 26 -5 5 -10 -3 -11 -18z"/>
<path d="M4485 6800 c3 -5 8 -10 11 -10 2 0 4 5 4 10 0 6 -5 10 -11 10 -5 0
-7 -4 -4 -10z"/>
<path d="M5870 6801 c0 -6 4 -13 10 -16 6 -3 7 1 4 9 -7 18 -14 21 -14 7z"/>
<path d="M6030 6801 c0 -6 4 -13 10 -16 6 -3 7 1 4 9 -7 18 -14 21 -14 7z"/>
<path d="M6190 6801 c0 -6 4 -13 10 -16 6 -3 7 1 4 9 -7 18 -14 21 -14 7z"/>
<path d="M6350 6801 c0 -6 4 -13 10 -16 6 -3 7 1 4 9 -7 18 -14 21 -14 7z"/>
<path d="M7813 6784 c4 -7 0 -17 -8 -24 -8 -7 -12 -16 -9 -21 10 -17 -39 -9
-52 9 -11 14 -13 14 -9 1 5 -13 -3 -16 -50 -17 -58 0 -77 10 -48 27 16 9 16
10 -4 8 -14 -1 -20 -7 -18 -19 2 -10 0 -18 -6 -18 -5 0 -9 6 -9 13 0 8 -4 7
-10 -3 -8 -13 -13 -13 -31 -2 -12 8 -18 9 -14 2 5 -7 -6 -10 -34 -9 -23 2 -41
7 -41 11 0 4 -5 8 -11 8 -5 0 -7 -4 -4 -10 9 -14 -8 -12 -24 3 -11 10 -13 10
-7 0 5 -9 0 -13 -13 -13 -27 0 -35 17 -14 29 16 9 16 10 -4 8 -14 -1 -20 -7
-18 -19 2 -10 0 -18 -6 -18 -5 0 -9 6 -9 13 0 8 -4 7 -10 -3 -8 -13 -13 -13
-31 -2 -12 8 -18 9 -14 2 5 -7 -6 -10 -34 -9 -23 2 -41 7 -41 11 0 4 -5 8 -11
8 -5 0 -7 -4 -4 -10 9 -14 -8 -12 -24 3 -11 10 -13 10 -7 0 5 -9 0 -13 -13
-13 -27 0 -35 17 -14 29 16 9 16 10 -4 8 -14 -1 -20 -7 -18 -19 2 -10 0 -18
-6 -18 -5 0 -9 6 -9 13 0 8 -4 7 -10 -3 -8 -13 -13 -13 -31 -2 -11 8 -18 9
-15 4 7 -12 -13 -10 -33 2 -10 6 -12 5 -7 -2 5 -8 0 -12 -13 -12 -27 0 -35 17
-14 29 16 9 16 10 -4 8 -14 -1 -20 -7 -18 -19 2 -10 0 -18 -6 -18 -5 0 -9 6
-9 13 0 8 -4 7 -10 -3 -8 -13 -13 -13 -31 -2 -12 8 -18 9 -14 2 5 -7 -6 -10
-34 -9 -23 2 -41 7 -41 11 0 4 -5 8 -11 8 -5 0 -7 -4 -4 -10 9 -14 -8 -12 -24
3 -11 10 -13 10 -7 0 5 -9 0 -13 -13 -13 -27 0 -35 17 -14 29 16 9 16 10 -4 8
-14 -1 -20 -7 -18 -19 2 -10 0 -18 -6 -18 -5 0 -9 6 -9 13 0 8 -4 7 -10 -3 -8
-13 -13 -13 -31 -2 -12 8 -18 9 -14 2 5 -7 -6 -10 -34 -9 -23 2 -41 7 -41 11
0 4 -5 8 -11 8 -5 0 -7 -4 -4 -10 9 -14 -8 -12 -24 3 -11 10 -13 10 -7 0 5 -9
0 -13 -13 -13 -27 0 -35 17 -14 29 16 9 16 10 -4 8 -15 -1 -20 -7 -17 -20 2
-14 -2 -17 -19 -15 -12 2 -28 10 -35 18 -10 13 -11 13 -6 -2 4 -13 1 -18 -11
-18 -10 0 -13 5 -9 12 5 7 3 8 -7 2 -21 -13 -51 -16 -44 -4 3 5 1 10 -4 10 -6
0 -11 -4 -11 -10 0 -5 -16 -9 -35 -8 -19 1 -35 6 -35 12 0 7 -3 7 -8 -1 -4 -6
-22 -11 -39 -11 -18 1 -30 5 -27 10 3 4 0 8 -5 8 -6 0 -11 -5 -11 -10 0 -13
-63 -9 -72 5 -5 6 -8 6 -8 -2 0 -8 -13 -12 -35 -11 -19 1 -32 5 -29 10 3 4 0
8 -5 8 -6 0 -11 -4 -11 -10 0 -5 -16 -9 -35 -8 -19 1 -35 6 -35 12 0 7 -3 7
-8 -1 -4 -6 -22 -11 -39 -11 -18 1 -30 5 -27 10 3 4 0 8 -5 8 -6 0 -11 -5 -11
-10 0 -13 -63 -9 -72 5 -5 6 -8 5 -8 -3 0 -9 -13 -12 -40 -10 -22 1 -40 6 -40
10 0 4 -5 8 -11 8 -5 0 -7 -4 -4 -10 9 -14 -8 -12 -24 3 -11 10 -13 10 -7 0 5
-9 0 -13 -13 -13 -27 0 -35 17 -14 29 16 9 16 10 -4 8 -14 -1 -20 -7 -18 -19
2 -10 0 -18 -6 -18 -5 0 -9 6 -9 13 0 8 -4 7 -10 -3 -8 -13 -13 -13 -31 -2
-12 8 -18 9 -14 2 5 -7 -6 -10 -34 -9 -23 2 -41 7 -41 11 0 4 -5 8 -11 8 -5 0
-7 -4 -4 -10 9 -14 -8 -12 -24 3 -11 10 -13 10 -7 0 5 -9 0 -13 -13 -13 -27 0
-35 17 -14 29 16 9 16 10 -4 8 -14 -1 -20 -7 -18 -19 2 -10 0 -18 -6 -18 -5 0
-9 6 -9 13 0 8 -4 7 -10 -3 -8 -13 -13 -13 -31 -2 -12 8 -18 9 -14 2 5 -7 -6
-10 -34 -9 -23 2 -41 7 -41 11 0 4 -5 8 -11 8 -5 0 -7 -4 -4 -10 4 -6 -5 -10
-20 -10 -18 0 -24 4 -19 13 5 8 3 8 -9 -2 -9 -7 -14 -17 -11 -22 3 -5 0 -9 -7
-9 -9 0 -9 -3 0 -14 8 -10 9 -16 1 -21 -7 -4 -7 -13 1 -27 9 -18 9 -20 -4 -15
-17 6 -17 -8 2 -57 10 -24 9 -27 -3 -23 -16 6 -15 -9 3 -57 10 -24 9 -27 -3
-23 -16 6 -15 -9 3 -57 10 -24 9 -27 -3 -23 -16 6 -15 -9 3 -57 10 -24 9 -27
-3 -23 -16 6 -15 -9 3 -57 10 -24 9 -27 -3 -23 -16 6 -15 -9 3 -57 10 -24 9
-27 -3 -23 -16 6 -15 -9 3 -57 10 -24 9 -27 -3 -23 -16 6 -15 -9 3 -57 10 -24
9 -27 -3 -23 -11 4 -13 0 -9 -16 16 -70 19 -97 12 -97 -5 0 -9 5 -9 12 0 6 -2
9 -5 6 -3 -3 1 -18 10 -34 9 -17 11 -30 5 -32 -6 -2 -7 -8 -4 -13 3 -6 1 -15
-4 -22 -8 -9 0 -12 31 -12 23 1 52 -3 65 -7 13 -4 21 -4 18 1 -3 5 8 8 24 7
23 0 30 -6 31 -21 0 -18 1 -18 9 3 10 24 30 30 30 10 0 -9 4 -8 10 2 8 12 10
10 11 -10 l1 -25 8 25 c4 14 9 18 9 10 1 -13 2 -13 11 0 6 10 10 11 10 3 0 -7
5 -13 11 -13 5 0 7 5 3 11 -4 7 1 7 16 -1 15 -8 20 -8 16 -1 -4 6 -2 11 3 11
6 0 11 -4 11 -10 0 -5 5 -10 11 -10 5 0 8 3 6 8 -3 4 19 7 49 8 30 0 54 -4 54
-9 0 -5 7 -4 16 4 13 10 17 10 25 -2 7 -12 9 -12 10 1 0 10 3 8 9 -5 l9 -20 0
20 c1 15 3 17 10 6 7 -11 9 -11 14 0 4 11 6 11 6 1 1 -8 6 -10 13 -6 20 12 48
12 41 0 -4 -6 0 -5 9 2 10 8 19 9 22 3 4 -5 -2 -14 -11 -20 -16 -9 -16 -10 4
-8 12 0 21 6 20 12 -1 5 6 9 15 9 10 -1 16 2 13 6 -3 4 9 7 25 6 23 0 30 -6
31 -21 0 -18 1 -18 9 3 10 23 30 31 30 11 0 -8 5 -7 16 2 13 10 17 10 25 -2 7
-12 9 -12 9 1 0 13 1 13 10 0 9 -13 10 -13 11 0 0 10 3 8 9 -5 8 -18 9 -18 9
-2 1 10 5 16 11 12 5 -3 6 -13 3 -23 -5 -14 -3 -14 9 2 9 12 20 16 28 11 9 -5
11 -4 6 3 -5 8 0 11 16 9 13 -2 21 -8 18 -13 -3 -5 -8 -8 -11 -7 -3 1 -6 -5
-6 -12 0 -10 4 -12 12 -5 7 5 15 6 19 2 4 -4 6 0 4 8 -2 9 4 14 14 14 10 -1
16 2 13 6 -3 4 9 7 25 6 23 0 30 -6 31 -21 0 -18 1 -18 9 3 10 23 30 31 30 11
0 -8 5 -7 16 2 13 10 17 10 25 -2 7 -12 9 -12 9 1 0 13 1 13 10 0 9 -13 10
-13 11 0 0 10 3 8 9 -5 8 -18 9 -18 9 -2 1 10 5 16 11 12 5 -3 6 -13 3 -23 -5
-14 -3 -14 9 2 9 12 20 16 28 11 8 -5 11 -4 7 2 -4 7 5 10 23 9 23 0 30 -6 31
-21 0 -18 1 -18 9 3 10 24 30 30 30 10 0 -9 4 -8 10 2 8 12 10 10 11 -10 l1
-25 8 25 c4 14 9 18 9 10 1 -13 2 -13 11 0 6 10 10 11 10 3 0 -7 5 -13 11 -13
5 0 8 4 5 9 -4 5 2 8 11 6 10 -1 17 -8 15 -16 -3 -10 0 -10 13 1 17 14 143 22
151 9 3 -5 -3 -6 -13 -3 -15 5 -15 4 -3 -5 8 -5 11 -13 7 -17 -4 -4 -13 -2
-19 4 -7 7 -16 12 -20 12 -4 0 1 -9 12 -20 26 -26 25 -26 40 10 7 17 16 30 21
30 12 0 11 -6 -7 -42 -9 -16 -11 -27 -5 -24 6 4 11 3 11 -2 0 -6 -7 -12 -15
-16 -9 -3 -15 -19 -15 -41 0 -19 -3 -35 -7 -35 -5 0 -13 -11 -20 -25 -7 -16
-7 -23 -1 -18 7 3 8 1 4 -5 -4 -7 -14 -12 -22 -12 -8 0 -14 -4 -14 -10 0 -5 8
-7 18 -4 10 4 13 3 6 -3 -6 -4 -21 -35 -35 -68 -13 -33 -27 -61 -31 -63 -5 -2
-8 -10 -8 -18 0 -8 -4 -22 -10 -32 -5 -9 -16 -34 -26 -54 -10 -23 -21 -35 -28
-31 -6 4 -6 0 2 -9 10 -13 10 -19 -3 -32 -9 -8 -16 -19 -17 -23 -4 -27 -11
-43 -19 -43 -5 0 -8 -3 -8 -7 3 -20 -2 -34 -11 -28 -5 3 -10 1 -10 -4 0 -6 4
-11 10 -11 5 0 7 -7 4 -15 -4 -8 -10 -15 -16 -15 -5 0 -7 4 -3 9 3 5 2 12 -3
15 -4 2 -9 -4 -9 -15 -1 -10 3 -19 8 -19 6 0 7 -5 4 -10 -4 -6 -10 -8 -14 -5
-5 2 -6 -8 -4 -23 3 -19 2 -23 -5 -14 -7 11 -10 9 -15 -7 -3 -12 -1 -19 4 -15
5 3 9 0 9 -5 0 -6 -4 -11 -10 -11 -5 0 -10 -7 -10 -15 0 -8 -8 -15 -17 -16
-11 0 -13 -3 -6 -6 10 -4 10 -9 1 -26 -7 -12 -11 -25 -10 -29 1 -5 -2 -8 -6
-8 -4 0 -9 -10 -9 -22 -1 -13 -7 -24 -13 -26 -5 -2 -10 -10 -10 -18 0 -8 -8
-14 -17 -15 -15 0 -15 -2 2 -9 18 -7 18 -9 3 -15 -10 -4 -14 -13 -11 -22 4
-11 2 -14 -6 -9 -8 5 -10 0 -7 -18 3 -15 1 -24 -5 -21 -5 4 -7 10 -5 14 3 4
-1 8 -9 8 -10 0 -12 -4 -5 -12 5 -6 7 -20 5 -30 -2 -11 -4 -23 -4 -27 -1 -5
-6 -8 -12 -8 -8 0 -8 4 0 14 8 10 9 16 1 21 -6 4 -9 1 -8 -7 2 -7 -2 -12 -8
-11 -6 1 -11 -4 -11 -12 0 -8 4 -12 8 -10 4 3 10 -2 13 -11 4 -12 2 -15 -9
-10 -8 3 -15 1 -15 -4 0 -6 4 -10 9 -10 6 0 3 -12 -4 -27 -8 -16 -20 -28 -26
-28 -7 0 -13 -8 -15 -18 -1 -9 2 -15 7 -11 5 3 6 10 3 16 -4 7 -2 8 4 4 11 -6
1 -37 -18 -56 -6 -6 -12 -30 -13 -46 0 -7 -12 -11 -26 -9 -22 2 -23 1 -8 -10
19 -14 23 -35 6 -35 -5 0 -7 6 -3 13 4 6 3 8 -1 4 -13 -11 -15 -38 -3 -31 7 5
8 2 4 -5 -5 -7 -14 -10 -22 -7 -8 3 -14 1 -14 -3 0 -5 5 -11 11 -13 15 -5 -1
-38 -20 -39 -9 0 -11 -3 -4 -5 7 -3 9 -12 6 -20 -3 -7 -9 -12 -13 -9 -5 3 -6
-5 -2 -17 4 -16 2 -19 -8 -13 -10 6 -12 4 -7 -9 6 -14 3 -17 -9 -12 -14 5 -15
4 -5 -8 9 -11 6 -24 -13 -60 -13 -25 -22 -46 -18 -46 3 0 -3 -6 -13 -14 -11
-8 -24 -12 -30 -9 -5 3 -4 0 3 -8 18 -19 15 -49 -5 -50 -11 0 -13 -3 -5 -6 6
-2 10 -9 7 -13 -3 -5 -12 -7 -19 -4 -8 3 -17 1 -21 -5 -3 -6 0 -9 8 -5 19 7
32 -12 16 -22 -8 -5 -9 -3 -4 6 6 9 4 11 -4 5 -9 -5 -10 -10 -2 -18 8 -8 6
-16 -6 -29 -9 -11 -18 -24 -19 -31 -1 -7 -11 -32 -22 -57 -11 -25 -26 -60 -33
-77 -8 -18 -18 -33 -24 -33 -5 0 -3 -5 5 -11 12 -9 11 -10 -7 -6 -24 5 -32 -7
-10 -17 9 -5 9 -7 -1 -12 -6 -3 -9 -11 -5 -17 4 -7 0 -8 -12 -3 -15 5 -16 4
-5 -9 8 -10 9 -15 2 -15 -7 0 -9 -7 -5 -17 4 -11 3 -14 -5 -9 -8 5 -10 2 -6
-8 4 -11 0 -16 -12 -16 -16 0 -17 -2 -4 -10 13 -8 12 -11 -5 -25 -11 -9 -14
-13 -7 -10 11 6 11 3 0 -16 -7 -13 -17 -27 -22 -30 -5 -4 -6 -14 -3 -24 5 -10
3 -14 -5 -9 -7 5 -9 0 -6 -14 4 -15 2 -20 -11 -17 -10 2 -18 -3 -18 -10 0 -8
4 -12 8 -10 4 3 6 -3 4 -12 -1 -10 -9 -18 -17 -17 -8 1 -15 -5 -15 -12 0 -7 4
-11 9 -7 6 3 2 -10 -8 -28 -10 -19 -17 -38 -16 -43 2 -5 -4 -6 -13 -2 -11 4
-14 2 -8 -7 11 -18 13 -38 2 -31 -5 3 -9 -3 -9 -13 0 -11 -5 -24 -12 -31 -7
-7 -9 -12 -5 -12 4 0 2 -6 -5 -14 -7 -8 -16 -12 -19 -10 -3 2 -4 -8 -1 -23 4
-20 2 -24 -8 -18 -10 6 -12 4 -7 -9 6 -14 3 -17 -9 -12 -13 5 -14 3 -6 -6 14
-17 13 -30 -3 -48 -14 -16 -30 -60 -27 -72 2 -8 -13 -12 -30 -9 -12 2 -9 -17
3 -21 12 -4 1 -38 -13 -38 -6 0 -4 8 3 18 12 15 12 16 -2 5 -9 -7 -20 -9 -25
-5 -4 4 -3 0 4 -9 6 -9 8 -20 4 -24 -4 -5 -2 -5 5 -1 14 8 -16 -56 -31 -66 -7
-5 -7 -8 2 -8 10 0 10 -3 0 -14 -7 -8 -16 -12 -19 -10 -4 2 -13 -4 -20 -14
-13 -15 -12 -16 3 -4 10 8 19 9 22 3 3 -5 0 -11 -6 -13 -7 -3 -13 -13 -14 -24
-1 -25 -14 -55 -32 -76 -8 -10 -12 -18 -8 -18 4 0 1 -10 -6 -22 -7 -13 -11
-27 -10 -32 2 -5 -5 -5 -15 -2 -14 6 -15 5 -6 -5 9 -9 9 -17 0 -33 -6 -12 -12
-23 -12 -26 -5 -23 -42 -90 -50 -90 -5 0 -3 -5 5 -11 12 -8 8 -9 -15 -6 -26 5
-27 4 -12 -8 14 -10 15 -18 7 -39 -5 -14 -12 -26 -15 -26 -4 0 -3 5 1 12 4 7
3 8 -5 4 -9 -6 -9 -11 1 -24 11 -13 11 -14 -1 -7 -11 6 -13 3 -9 -13 4 -12 2
-20 -2 -17 -10 6 -31 -51 -22 -61 4 -4 1 -3 -7 1 -11 6 -13 4 -8 -9 5 -14 3
-17 -8 -12 -8 3 -15 1 -15 -3 0 -5 6 -12 13 -14 9 -4 9 -6 -1 -6 -7 -1 -10 -6
-6 -13 5 -8 2 -9 -9 -5 -9 3 -19 1 -23 -5 -4 -6 -3 -8 4 -4 15 9 26 -14 13
-27 -9 -9 -14 -9 -20 1 -7 11 -9 11 -14 -2 -4 -9 -1 -15 5 -13 18 4 17 -34 -2
-50 -10 -9 -16 -23 -12 -31 4 -10 1 -13 -7 -8 -8 6 -11 2 -9 -10 2 -13 -2 -18
-12 -16 -12 3 -12 1 -3 -9 10 -10 9 -15 -5 -26 -12 -10 -12 -12 -2 -8 10 4 9
2 -2 -8 -10 -8 -15 -17 -11 -20 3 -4 0 -13 -7 -22 -7 -8 -9 -15 -6 -15 4 0 1
-6 -6 -14 -7 -8 -17 -11 -23 -8 -5 3 -4 -1 2 -10 17 -20 4 -31 -16 -16 -10 8
-9 4 3 -10 11 -12 14 -22 8 -22 -6 0 -14 -16 -18 -35 -3 -19 -10 -35 -15 -35
-5 0 -6 8 -3 18 5 14 4 14 -4 2 -8 -10 -7 -19 1 -29 9 -12 9 -13 0 -7 -9 5
-13 1 -13 -13 0 -11 -4 -22 -8 -25 -13 -8 -13 -64 -1 -72 8 -4 9 -3 5 4 -5 9
6 12 38 12 26 0 46 -5 49 -12 4 -10 6 -10 6 0 1 16 28 16 34 0 4 -10 6 -10 6
0 1 16 28 16 34 0 4 -10 6 -10 6 0 1 16 28 16 34 0 4 -10 6 -10 6 0 1 14 31
17 31 2 0 -5 5 -10 11 -10 5 0 7 5 4 10 -9 14 18 12 34 -3 8 -7 11 -7 8 -1 -9
16 135 15 145 0 5 -8 8 -7 8 2 0 16 27 16 33 0 4 -10 6 -10 6 0 1 16 28 16 34
0 4 -10 6 -10 6 0 1 14 31 17 31 2 0 -5 5 -10 11 -10 5 0 7 5 4 10 -9 14 18
12 34 -2 8 -7 11 -8 8 -2 -5 8 19 11 79 11 47 0 79 -4 72 -9 -9 -5 -10 -8 -1
-8 6 0 15 5 18 10 3 5 15 10 26 10 11 0 17 -4 14 -10 -3 -5 -1 -10 4 -10 6 0
11 4 11 9 0 4 31 8 70 8 38 0 68 -3 65 -7 -2 -4 2 -7 10 -7 8 0 12 4 9 9 -8
13 20 9 35 -5 11 -9 12 -9 7 0 -5 9 3 12 29 11 35 -1 35 -2 18 -22 -16 -18
-16 -19 -1 -7 9 7 22 10 27 6 7 -3 8 0 5 9 -4 11 0 16 11 16 10 0 14 -5 9 -13
-6 -9 -4 -9 7 1 16 14 53 16 44 2 -3 -5 -2 -10 4 -10 5 0 11 6 14 13 3 9 8 8
22 -3 10 -8 16 -10 12 -4 -5 8 15 11 68 11 51 0 72 -3 68 -11 -4 -7 -1 -6 8 1
15 12 82 15 74 3 -2 -4 2 -7 10 -7 8 0 12 4 9 9 -8 13 20 9 35 -4 11 -10 12
-10 7 -1 -5 9 3 12 29 11 35 -1 35 -2 18 -22 -16 -18 -16 -19 -1 -7 9 7 22 10
27 6 7 -3 8 0 5 9 -4 11 0 16 11 16 10 0 14 -5 9 -13 -6 -9 -4 -9 7 1 16 14
53 16 44 2 -3 -5 -2 -10 4 -10 5 0 11 6 14 13 3 9 8 8 22 -3 10 -8 16 -10 12
-4 -5 9 13 12 63 11 43 0 70 -5 70 -11 0 -6 4 -5 9 3 8 13 12 13 27 0 11 -9
15 -9 10 -2 -5 9 1 13 19 13 14 0 24 -4 21 -8 -3 -5 1 -9 9 -9 8 0 12 4 10 7
-3 4 6 8 20 8 14 0 22 -5 19 -10 -3 -5 4 -4 15 4 18 11 23 11 31 -2 6 -10 10
-11 10 -2 0 16 27 16 33 0 4 -10 6 -10 6 0 1 16 28 16 34 0 4 -10 6 -10 6 0 1
14 31 17 31 2 0 -5 5 -10 11 -10 5 0 7 5 4 10 -9 14 18 12 34 -3 8 -7 11 -7 8
-1 -9 16 135 15 145 0 5 -8 8 -7 8 2 0 16 27 16 33 0 4 -10 6 -10 6 0 1 16 28
16 34 0 4 -10 6 -10 6 0 1 14 31 17 31 2 0 -5 5 -10 11 -10 5 0 7 5 4 10 -9
14 18 12 34 -2 8 -8 11 -8 8 -2 -9 16 135 15 145 0 5 -8 8 -7 8 2 0 6 6 12 14
12 8 0 17 -6 19 -12 4 -10 6 -10 6 0 1 16 28 16 34 0 4 -10 6 -10 6 0 1 14 31
17 31 2 0 -5 5 -10 11 -10 5 0 7 4 4 10 -9 14 18 12 34 -3 9 -7 11 -7 8 -1 -5
9 15 11 71 10 58 -1 76 -4 74 -14 -1 -8 2 -11 8 -7 6 3 8 11 5 16 -4 5 8 9 25
9 18 0 29 4 25 10 -3 6 -2 10 4 10 10 0 9 19 -2 38 -10 14 5 16 19 2 6 -6 10
-3 10 9 0 12 -6 17 -16 14 -10 -3 -17 2 -17 11 0 8 4 13 8 10 4 -2 10 0 14 6
3 5 0 10 -7 10 -14 0 -17 37 -4 58 4 7 2 12 -4 12 -7 0 -8 6 0 19 13 26 13 34
-2 25 -7 -5 -8 -3 -4 5 5 7 14 10 22 7 8 -3 13 0 11 7 -1 7 4 11 11 9 8 -1 11
2 7 9 -5 8 -10 8 -18 0 -6 -6 -18 -11 -26 -11 -13 1 -12 4 4 17 16 13 17 15 3
10 -10 -4 -18 -2 -18 3 0 6 4 10 10 10 5 0 9 6 7 13 -1 6 4 11 11 10 6 -2 12
2 12 8 0 6 -8 8 -18 5 -14 -5 -18 -1 -17 14 1 11 4 23 8 26 3 4 2 15 -4 25 -6
13 -6 19 1 19 5 0 10 7 10 16 0 8 -4 13 -8 10 -9 -5 -9 81 1 90 3 4 2 15 -4
25 -6 13 -6 19 1 19 5 0 10 7 10 16 0 8 -4 13 -8 10 -11 -6 -9 34 1 51 5 8 3
13 -3 13 -7 0 -8 6 0 19 13 26 13 34 -2 25 -7 -5 -8 -3 -4 5 5 7 14 10 22 7 8
-3 13 0 11 7 -1 7 4 11 11 9 8 -1 11 2 7 9 -5 8 -10 8 -18 0 -6 -6 -18 -11
-26 -11 -13 1 -12 4 4 17 16 13 17 15 3 10 -10 -4 -18 -2 -18 3 0 6 5 10 11
10 5 0 8 4 4 9 -3 6 3 15 12 21 15 9 14 10 -7 4 -24 -7 -24 -6 -7 19 16 25 16
26 0 20 -15 -6 -16 -4 -5 9 10 13 10 17 0 20 -10 4 -10 8 1 21 11 15 10 18
-12 26 -14 5 -27 13 -29 18 -3 4 -3 2 -2 -4 2 -7 -6 -13 -17 -13 -11 0 -18 4
-15 8 2 4 -4 8 -14 8 -10 0 -16 -4 -14 -8 10 -16 -19 -7 -32 10 -10 12 -13 13
-9 2 4 -11 -2 -16 -19 -18 -20 -1 -24 2 -19 16 4 12 1 11 -11 -5 -18 -24 -52
-21 -59 6 -4 13 -5 13 -6 -2 0 -10 -6 -15 -11 -12 -6 4 -7 11 -4 17 4 7 2 8
-5 4 -6 -4 -9 -12 -6 -17 4 -5 -1 -9 -10 -9 -9 0 -14 4 -10 9 3 5 0 13 -7 17
-7 4 -10 4 -6 -1 12 -13 -11 -33 -32 -28 -19 5 -25 16 -21 36 1 5 -3 6 -8 2
-6 -3 -8 -11 -5 -18 3 -8 -5 -13 -21 -15 -18 -1 -24 2 -19 11 4 6 -1 5 -12 -4
-24 -20 -58 -14 -50 9 5 15 4 15 -8 -1 -12 -15 -15 -15 -26 -2 -14 17 -30 20
-30 4 0 -5 4 -8 9 -4 5 3 13 0 17 -6 5 -9 0 -10 -14 -7 -12 4 -24 2 -27 -2 -8
-13 -44 1 -48 19 -4 13 -5 13 -6 -2 0 -10 -6 -15 -11 -12 -6 4 -7 11 -4 17 4
7 2 8 -5 4 -6 -4 -9 -12 -6 -17 4 -5 -1 -9 -10 -9 -10 0 -13 5 -9 13 4 6 -1 5
-12 -4 -19 -17 -43 -15 -56 5 -5 8 -8 7 -8 -1 0 -7 -5 -13 -11 -13 -5 0 -7 5
-4 10 9 15 -2 12 -19 -6 -9 -8 -16 -11 -16 -5 0 5 -12 8 -26 5 -16 -3 -23 -1
-19 6 3 6 0 7 -9 4 -9 -3 -16 -11 -16 -18 0 -7 -3 -7 -8 -1 -10 14 -72 16 -72
2 0 -6 -3 -7 -6 -4 -4 4 -1 13 5 21 9 11 9 16 0 22 -7 4 -9 3 -6 -3 10 -16
-15 -31 -45 -27 -16 1 -28 -2 -28 -8 0 -6 -3 -8 -6 -5 -4 4 -1 13 5 21 9 11 9
16 -1 22 -7 4 -10 4 -6 -1 4 -4 3 -14 -4 -22 -9 -11 -15 -10 -37 9 l-26 23 19
-22 c17 -20 17 -23 3 -23 -10 0 -17 6 -17 13 0 7 -3 8 -8 2 -4 -5 -18 -12 -32
-13 -14 -2 -21 0 -17 5 5 4 14 8 19 8 6 0 12 6 14 13 1 7 0 8 -3 2 -3 -7 -10
-7 -21 2 -10 7 -14 8 -9 3 4 -4 0 -16 -9 -26 -19 -21 -58 -14 -50 10 5 12 3
12 -8 -2 -14 -18 -15 -18 -26 0 -11 17 -11 17 -6 -1 5 -15 2 -17 -14 -13 -11
3 -22 1 -25 -3 -8 -13 -45 1 -45 16 0 8 -4 14 -10 14 -5 0 -6 -8 -3 -17 6 -16
5 -17 -12 -3 -11 9 -16 10 -11 3 4 -7 3 -13 -1 -13 -5 0 -15 6 -22 13 -8 7
-11 7 -8 1 4 -7 -3 -11 -20 -11 -25 -1 -26 0 -8 13 10 8 15 14 11 14 -4 0 -19
-9 -33 -20 -14 -11 -30 -17 -37 -13 -19 12 -45 13 -51 3 -4 -6 -11 -7 -17 -4
-19 12 -88 12 -88 0 0 -6 -4 -6 -9 2 -4 8 -11 13 -15 13 -3 -1 -6 1 -6 4 0 26
2 28 14 12 13 -16 14 -14 11 19 -2 21 1 47 8 58 6 12 11 25 12 29 0 5 14 23
30 40 17 17 22 25 12 18 -16 -13 -16 -9 3 40 12 30 27 60 33 67 6 8 12 19 13
26 5 31 11 42 29 59 11 10 14 16 8 12 -19 -9 -16 6 5 22 9 8 12 12 5 8 -9 -4
-9 3 1 27 8 18 19 34 24 36 6 2 8 10 5 17 -3 8 2 22 11 31 9 8 13 20 10 26 -4
6 2 8 17 4 20 -6 21 -5 7 4 -15 9 -16 14 -6 30 7 10 17 16 23 13 5 -3 5 -1 -1
6 -9 10 -8 20 3 42 13 26 17 28 31 17 13 -11 14 -11 3 7 -10 17 -9 28 8 68 12
27 21 55 21 63 0 17 16 18 24 2 3 -7 3 -2 0 11 -6 21 -4 23 17 18 20 -5 21 -4
9 6 -21 17 -23 37 -5 38 28 3 33 4 40 11 4 4 -5 5 -21 2 -23 -4 -27 -3 -16 7
6 7 12 21 12 32 0 11 4 15 12 11 8 -5 9 -2 5 9 -3 9 0 22 7 29 7 7 13 16 14
21 9 43 16 57 27 54 6 -3 12 1 12 9 0 7 -5 11 -10 7 -5 -3 -4 5 3 17 10 20 13
20 24 5 11 -15 12 -14 12 4 0 11 -4 18 -7 15 -4 -2 -10 0 -14 6 -3 5 -1 10 6
10 7 0 10 3 6 6 -8 8 13 64 25 64 5 0 7 4 3 9 -3 5 -1 12 5 16 5 3 10 -1 10
-9 0 -8 4 -18 10 -21 11 -7 2 23 -12 42 -5 7 -5 14 2 18 5 3 10 2 10 -3 0 -6
8 -13 17 -16 13 -5 12 -1 -5 17 -14 15 -19 26 -12 29 6 2 12 13 13 26 2 27 6
27 23 4 12 -15 12 -15 7 6 -3 12 -10 22 -17 22 -6 0 -3 5 7 11 9 6 15 14 12
20 -9 14 11 11 24 -4 6 -8 7 -18 3 -22 -4 -5 -1 -5 6 -1 11 6 10 12 -3 26 -9
10 -13 20 -8 22 4 3 3 4 -3 2 -6 -1 -11 4 -11 12 0 8 7 14 14 14 8 0 11 4 8
10 -3 5 1 23 10 40 8 16 16 33 16 37 2 21 21 43 32 37 9 -5 9 -4 0 6 -10 11
-9 16 5 26 11 9 13 13 4 14 -7 0 -10 5 -7 10 4 6 11 8 16 5 5 -3 6 0 3 8 -3 8
0 18 5 22 6 3 9 11 6 16 -4 5 1 9 9 9 8 0 18 4 21 10 3 5 0 7 -9 4 -13 -5 -13
-1 -3 25 6 16 15 27 21 24 5 -4 7 1 3 10 -3 10 -2 17 4 17 6 0 7 5 3 12 -5 7
-3 8 6 3 10 -6 12 -4 7 9 -6 14 -3 17 9 12 13 -5 15 -4 5 7 -8 11 -8 22 2 46
7 17 16 28 20 24 4 -3 7 0 8 8 2 41 42 133 53 122 4 -4 4 0 0 10 -3 9 -1 17 5
17 6 0 8 7 5 15 -3 8 0 17 7 20 8 3 15 17 16 32 0 15 6 29 12 31 6 2 8 8 5 14
-4 6 -1 8 7 6 8 -3 13 -12 11 -19 -2 -8 0 -10 4 -6 11 11 14 38 4 32 -16 -10
-16 18 0 51 9 21 20 32 29 28 11 -4 12 -2 1 11 -9 11 -9 15 -1 15 7 0 10 4 6
10 -3 5 -1 17 5 27 5 10 15 32 21 48 10 28 12 29 24 12 11 -16 13 -16 19 -2 3
9 2 13 -4 10 -18 -11 -22 25 -6 50 9 14 14 25 11 25 -2 0 5 18 16 40 13 24 26
37 32 34 8 -5 8 -3 0 6 -15 17 2 54 20 43 8 -4 8 -1 -1 9 -11 14 -10 18 3 26
9 5 16 12 16 15 -3 19 0 28 7 23 4 -2 14 0 22 6 12 8 12 9 -2 4 -10 -3 -20 -1
-23 4 -4 6 -1 10 4 10 6 0 11 9 11 21 0 15 4 19 16 15 15 -6 15 -4 3 11 -13
15 -12 16 6 9 16 -6 18 -5 8 5 -22 22 -14 33 9 13 20 -16 21 -17 9 -1 -11 14
-11 21 -3 29 7 7 12 16 12 22 0 5 -7 1 -15 -10 -8 -10 -15 -14 -15 -8 0 6 7
17 15 24 9 7 13 15 11 18 -12 11 15 41 32 36 10 -4 13 -3 6 3 -16 12 -14 45 3
39 11 -4 11 -1 3 14 -10 18 -8 19 20 16 17 -2 33 1 36 6 3 4 2 8 -3 7 -40 -7
-42 11 -8 86 14 30 25 56 24 57 -2 2 3 13 10 26 7 13 17 20 24 15 8 -5 8 -2
-1 9 -10 13 -10 18 1 30 7 7 12 19 9 26 -5 16 15 16 21 0 4 -9 6 -8 6 2 1 9
-5 22 -11 29 -8 9 -8 11 -2 8 11 -6 30 36 26 56 -1 4 3 7 9 7 6 0 9 6 6 14 -3
8 1 17 9 20 9 3 12 10 9 16 -3 5 -1 10 5 10 6 0 8 4 5 10 -3 5 0 20 7 32 7 13
11 26 10 31 -1 4 3 7 9 7 5 0 7 5 4 10 -3 6 -1 10 4 10 6 0 11 8 11 18 0 10 3
22 8 26 4 4 7 11 7 14 1 4 6 17 13 29 6 12 13 30 15 40 1 10 10 29 20 43 9 13
17 30 17 36 0 24 43 93 54 87 6 -4 4 1 -4 12 -14 17 -13 17 10 11 20 -6 22 -5
8 4 -16 10 -16 13 -1 45 9 19 19 33 22 31 3 -2 7 6 8 17 5 48 10 61 29 68 10
4 13 8 6 8 -7 1 -10 6 -7 11 4 6 12 7 18 3 18 -11 38 -12 31 -2 -3 5 -9 7 -14
4 -4 -3 -14 3 -21 12 -12 15 -12 16 5 10 15 -6 17 -5 8 6 -9 10 -8 17 0 25 7
7 9 12 5 12 -4 0 -2 6 5 14 7 8 18 11 23 8 6 -3 4 2 -4 11 -11 13 -11 17 -1
17 8 0 10 3 7 7 -4 3 -2 12 5 20 16 19 9 22 -60 24 -34 1 -59 6 -56 10 3 5 1
9 -5 9 -5 0 -11 -6 -14 -12 -3 -10 -9 -10 -27 0 -13 8 -19 9 -15 2 5 -7 -6
-10 -34 -9 -23 2 -41 7 -41 11 0 4 -5 8 -11 8 -5 0 -7 -4 -4 -10 9 -14 -8 -12
-24 3 -11 10 -13 10 -7 0 5 -9 0 -13 -13 -13 -27 0 -35 17 -14 29 16 9 16 10
-4 8 -14 -1 -20 -7 -18 -19 3 -13 -2 -18 -20 -18 -25 0 -41 15 -26 24 5 4 12
0 15 -6 2 -7 4 -3 2 9 -1 12 -6 26 -11 30 -4 5 -5 3 -2 -3z m-1029 -1023 c3
-5 -1 -11 -9 -14 -9 -4 -12 -1 -8 9 6 16 10 17 17 5z m-727 -1666 c0 -8 -4
-12 -9 -9 -5 3 -6 10 -3 15 9 13 12 11 12 -6z"/>
<path d="M8156 6773 c-6 -14 -5 -15 5 -6 7 7 10 15 7 18 -3 3 -9 -2 -12 -12z"/>
<path d="M5230 6776 c0 -2 8 -10 18 -17 15 -13 16 -12 3 4 -13 16 -21 21 -21
13z"/>
<path d="M6389 6763 c-13 -16 -12 -17 4 -4 9 7 17 15 17 17 0 8 -8 3 -21 -13z"/>
<path d="M7690 6765 c-7 -9 -10 -18 -6 -22 3 -3 6 -1 6 6 0 7 4 10 8 7 5 -3 9
1 9 9 0 19 -2 19 -17 0z"/>
<path d="M5310 6765 c0 -7 30 -13 34 -7 3 4 -4 9 -15 9 -10 1 -19 0 -19 -2z"/>
<path d="M5470 6766 c0 -2 7 -7 16 -10 8 -3 12 -2 9 4 -6 10 -25 14 -25 6z"/>
<path d="M5550 6765 c0 -7 30 -13 34 -7 3 4 -4 9 -15 9 -10 1 -19 0 -19 -2z"/>
<path d="M5710 6766 c0 -2 7 -7 16 -10 8 -3 12 -2 9 4 -6 10 -25 14 -25 6z"/>
<path d="M5824 6754 c-18 -15 -18 -15 2 -5 12 6 25 7 29 3 5 -4 5 -1 1 6 -9
15 -8 15 -32 -4z"/>
<path d="M5905 6760 c-3 -6 1 -7 9 -4 18 7 21 14 7 14 -6 0 -13 -4 -16 -10z"/>
<path d="M5984 6754 c-18 -15 -18 -15 2 -5 12 6 25 7 29 3 5 -4 5 -1 1 6 -9
15 -8 15 -32 -4z"/>
<path d="M6065 6760 c-3 -6 1 -7 9 -4 18 7 21 14 7 14 -6 0 -13 -4 -16 -10z"/>
<path d="M6144 6754 c-18 -15 -18 -15 2 -5 12 6 25 7 29 3 5 -4 5 -1 1 6 -9
15 -8 15 -32 -4z"/>
<path d="M6225 6760 c-3 -6 1 -7 9 -4 18 7 21 14 7 14 -6 0 -13 -4 -16 -10z"/>
<path d="M6304 6754 c-18 -15 -18 -15 2 -5 12 6 25 7 29 3 5 -4 5 -1 1 6 -9
15 -8 15 -32 -4z"/>
<path d="M6590 6766 c0 -2 7 -7 16 -10 8 -3 12 -2 9 4 -6 10 -25 14 -25 6z"/>
<path d="M6670 6765 c0 -7 30 -13 34 -7 3 4 -4 9 -15 9 -10 1 -19 0 -19 -2z"/>
<path d="M6830 6766 c0 -2 7 -7 16 -10 8 -3 12 -2 9 4 -6 10 -25 14 -25 6z"/>
<path d="M6910 6765 c0 -7 30 -13 34 -7 3 4 -4 9 -15 9 -10 1 -19 0 -19 -2z"/>
<path d="M7230 6766 c0 -2 7 -7 16 -10 8 -3 12 -2 9 4 -6 10 -25 14 -25 6z"/>
<path d="M7310 6765 c0 -7 30 -13 34 -7 3 4 -4 9 -15 9 -10 1 -19 0 -19 -2z"/>
<path d="M7470 6766 c0 -2 7 -7 16 -10 8 -3 12 -2 9 4 -6 10 -25 14 -25 6z"/>
<path d="M7550 6765 c0 -7 30 -13 34 -7 3 4 -4 9 -15 9 -10 1 -19 0 -19 -2z"/>
<path d="M7950 6766 c0 -2 7 -7 16 -10 8 -3 12 -2 9 4 -6 10 -25 14 -25 6z"/>
<path d="M8030 6765 c0 -7 30 -13 34 -7 3 4 -4 9 -15 9 -10 1 -19 0 -19 -2z"/>
<path d="M8096 6758 c3 -4 11 -5 19 -1 21 7 19 12 -4 10 -11 0 -18 -5 -15 -9z"/>
<path d="M4470 6740 c0 -5 5 -10 11 -10 5 0 7 5 4 10 -3 6 -8 10 -11 10 -2 0
-4 -4 -4 -10z"/>
<path d="M4495 6720 c-2 -3 5 -7 16 -7 10 -1 19 2 19 6 0 9 -29 10 -35 1z"/>
<path d="M5090 6700 c0 -5 5 -10 11 -10 5 0 7 5 4 10 -3 6 -8 10 -11 10 -2 0
-4 -4 -4 -10z"/>
<path d="M8214 6680 c0 -13 4 -16 10 -10 7 7 7 13 0 20 -6 6 -10 3 -10 -10z"/>
<path d="M3440 6660 c-9 -6 -10 -10 -3 -10 6 0 15 5 18 10 8 12 4 12 -15 0z"/>
<path d="M4470 6655 c-11 -13 -10 -14 4 -9 9 3 16 10 16 15 0 13 -6 11 -20 -6z"/>
<path d="M4479 6593 c-12 -16 -12 -17 2 -6 9 7 20 9 24 5 5 -4 5 -1 1 6 -9 16
-11 15 -27 -5z"/>
<path d="M3454 6566 c1 -8 5 -18 8 -22 4 -3 5 1 4 10 -1 8 -5 18 -8 22 -4 3
-5 -1 -4 -10z"/>
<path d="M8190 6576 c0 -2 8 -10 18 -17 15 -13 16 -12 3 4 -13 16 -21 21 -21
13z"/>
<path d="M4466 6532 c-3 -4 4 -9 15 -9 23 -2 25 3 4 10 -8 4 -16 3 -19 -1z"/>
<path d="M5094 6529 c-3 -6 -2 -15 3 -20 5 -5 9 -1 9 11 0 23 -2 24 -12 9z"/>
<path d="M8130 6525 c0 -7 30 -13 34 -7 3 4 -4 9 -15 9 -10 1 -19 0 -19 -2z"/>
<path d="M4470 6502 c0 -5 7 -9 15 -9 8 0 12 4 9 9 -3 4 -9 8 -15 8 -5 0 -9
-4 -9 -8z"/>
<path d="M8123 6495 c-3 -9 -3 -18 -1 -21 3 -3 8 4 11 16 6 23 -1 27 -10 5z"/>
<path d="M3455 6489 c-4 -6 -5 -12 -2 -15 2 -3 7 2 10 11 7 17 1 20 -8 4z"/>
<path d="M3394 6482 c4 -3 14 -7 22 -8 9 -1 13 0 10 4 -4 3 -14 7 -22 8 -9 1
-13 0 -10 -4z"/>
<path d="M4476 6458 c3 -5 10 -6 15 -3 13 9 11 12 -6 12 -8 0 -12 -4 -9 -9z"/>
<path d="M8090 6431 c0 -6 4 -13 10 -16 6 -3 7 1 4 9 -7 18 -14 21 -14 7z"/>
<path d="M8130 6420 c0 -5 5 -10 11 -10 5 0 7 5 4 10 -3 6 -8 10 -11 10 -2 0
-4 -4 -4 -10z"/>
<path d="M4470 6383 c0 -21 45 -40 55 -23 3 5 -4 7 -15 5 -11 -2 -24 3 -30 13
-5 9 -10 12 -10 5z"/>
<path d="M5094 6369 c-3 -6 -2 -15 3 -20 5 -5 9 -1 9 11 0 23 -2 24 -12 9z"/>
<path d="M3440 6366 c0 -2 8 -10 18 -17 15 -13 16 -12 3 4 -13 16 -21 21 -21
13z"/>
<path d="M8100 6355 c-7 -9 -11 -17 -9 -20 3 -2 10 5 17 15 14 24 10 26 -8 5z"/>
<path d="M4510 6320 c0 -5 5 -10 11 -10 5 0 7 5 4 10 -3 6 -8 10 -11 10 -2 0
-4 -4 -4 -10z"/>
<path d="M8045 6319 c-3 -4 2 -6 10 -5 21 3 28 13 10 13 -9 0 -18 -4 -20 -8z"/>
<path d="M4470 6295 c-11 -13 -10 -14 4 -9 9 3 16 10 16 15 0 13 -6 11 -20 -6z"/>
<path d="M5094 6289 c-3 -6 -2 -15 3 -20 5 -5 9 -1 9 11 0 23 -2 24 -12 9z"/>
<path d="M8025 6291 c-3 -5 -2 -12 3 -15 5 -3 9 1 9 9 0 17 -3 19 -12 6z"/>
<path d="M4479 6233 c-12 -16 -12 -17 2 -6 9 7 20 9 24 5 5 -4 5 -1 1 6 -9 16
-11 15 -27 -5z"/>
<path d="M5095 6241 c-3 -5 -2 -12 3 -15 5 -3 9 1 9 9 0 17 -3 19 -12 6z"/>
<path d="M7986 6212 c-3 -5 1 -9 9 -9 8 0 12 4 9 9 -3 4 -7 8 -9 8 -2 0 -6 -4
-9 -8z"/>
<path d="M7985 6180 c-3 -6 1 -7 9 -4 18 7 21 14 7 14 -6 0 -13 -4 -16 -10z"/>
<path d="M3456 6158 c3 -5 10 -6 15 -3 13 9 11 12 -6 12 -8 0 -12 -4 -9 -9z"/>
<path d="M3436 6141 c-3 -4 4 -17 17 -27 22 -19 22 -19 4 2 -9 11 -14 24 -10
27 3 4 4 7 0 7 -3 0 -8 -4 -11 -9z"/>
<path d="M8015 6140 c3 -5 8 -10 11 -10 2 0 4 5 4 10 0 6 -5 10 -11 10 -5 0
-7 -4 -4 -10z"/>
<path d="M4469 6093 c-12 -16 -12 -17 2 -6 9 7 20 9 24 5 5 -4 5 -1 1 6 -9 16
-11 15 -27 -5z"/>
<path d="M4470 6058 c0 -4 4 -8 9 -8 6 0 12 4 15 8 3 5 -1 9 -9 9 -8 0 -15 -4
-15 -9z"/>
<path d="M7966 6058 c3 -5 10 -6 15 -3 13 9 11 12 -6 12 -8 0 -12 -4 -9 -9z"/>
<path d="M5094 6049 c-3 -6 -2 -15 3 -20 5 -5 9 -1 9 11 0 23 -2 24 -12 9z"/>
<path d="M7930 6038 c0 -4 4 -8 9 -8 6 0 12 4 15 8 3 5 -1 9 -9 9 -8 0 -15 -4
-15 -9z"/>
<path d="M4475 6030 c-3 -6 1 -7 9 -4 18 7 21 14 7 14 -6 0 -13 -4 -16 -10z"/>
<path d="M7930 6016 c0 -2 8 -10 18 -17 15 -13 16 -12 3 4 -13 16 -21 21 -21
13z"/>
<path d="M7897 5995 c-4 -8 -1 -17 5 -21 7 -4 8 -3 4 4 -4 7 -2 12 3 12 6 0
11 5 11 10 0 15 -17 12 -23 -5z"/>
<path d="M4465 5970 c-4 -6 -3 -10 2 -9 4 1 10 0 13 -1 18 -7 41 -7 45 0 3 5
-3 7 -12 5 -10 -1 -23 2 -30 7 -7 6 -14 5 -18 -2z"/>
<path d="M5094 5969 c-3 -6 -2 -15 3 -20 5 -5 9 -1 9 11 0 23 -2 24 -12 9z"/>
<path d="M3425 5960 c-3 -6 1 -7 9 -4 18 7 21 14 7 14 -6 0 -13 -4 -16 -10z"/>
<path d="M4510 5921 c0 -6 4 -13 10 -16 6 -3 7 1 4 9 -7 18 -14 21 -14 7z"/>
<path d="M5095 5921 c-3 -5 -2 -12 3 -15 5 -3 9 1 9 9 0 17 -3 19 -12 6z"/>
<path d="M7910 5919 c0 -5 5 -7 10 -4 6 3 10 8 10 11 0 2 -4 4 -10 4 -5 0 -10
-5 -10 -11z"/>
<path d="M4475 5911 c-3 -5 -2 -12 3 -15 5 -3 9 1 9 9 0 17 -3 19 -12 6z"/>
<path d="M7860 5886 c0 -2 8 -10 18 -17 15 -13 16 -12 3 4 -13 16 -21 21 -21
13z"/>
<path d="M3461 5853 c-1 -6 -4 -20 -7 -30 -5 -17 -5 -17 6 0 6 10 9 23 6 30
-3 9 -5 9 -5 0z"/>
<path d="M5115 5831 c-3 -5 -2 -12 3 -15 5 -3 9 1 9 9 0 17 -3 19 -12 6z"/>
<path d="M4470 5818 c0 -4 4 -8 9 -8 6 0 12 4 15 8 3 5 -1 9 -9 9 -8 0 -15 -4
-15 -9z"/>
<path d="M5570 5769 c0 -5 -4 -8 -9 -4 -5 3 -12 2 -15 -3 -2 -4 6 -8 19 -8 15
0 21 5 18 13 -6 16 -13 17 -13 2z"/>
<path d="M5926 5763 c-6 -14 -5 -15 5 -6 7 7 10 15 7 18 -3 3 -9 -2 -12 -12z"/>
<path d="M6246 5763 c-6 -14 -5 -15 5 -6 7 7 10 15 7 18 -3 3 -9 -2 -12 -12z"/>
<path d="M6630 5765 c-11 -13 -10 -14 4 -9 9 3 16 10 16 15 0 13 -6 11 -20 -6z"/>
<path d="M7813 5773 c-17 -6 -17 -20 0 -20 8 0 14 6 14 14 0 7 -1 13 -1 12 -1
0 -7 -3 -13 -6z"/>
<path d="M5260 5760 c-9 -6 -10 -10 -3 -10 6 0 15 5 18 10 8 12 4 12 -15 0z"/>
<path d="M5500 5766 c0 -2 7 -9 15 -16 13 -11 14 -10 9 4 -5 14 -24 23 -24 12z"/>
<path d="M5710 5766 c0 -2 7 -7 16 -10 8 -3 12 -2 9 4 -6 10 -25 14 -25 6z"/>
<path d="M5416 5751 c-4 -5 3 -7 14 -4 23 6 26 13 6 13 -8 0 -17 -4 -20 -9z"/>
<path d="M6037 5749 c7 -7 15 -10 18 -7 3 3 -2 9 -12 12 -14 6 -15 5 -6 -5z"/>
<path d="M6357 5749 c7 -7 15 -10 18 -7 3 3 -2 9 -12 12 -14 6 -15 5 -6 -5z"/>
<path d="M6536 5752 c-2 -4 4 -8 14 -8 10 0 16 4 14 8 -3 4 -9 8 -14 8 -5 0
-11 -4 -14 -8z"/>
<path d="M4465 5730 c-4 -6 -3 -10 2 -9 4 1 10 0 13 -1 18 -7 41 -7 45 0 3 5
-3 7 -12 5 -10 -1 -23 2 -30 7 -7 6 -14 5 -18 -2z"/>
<path d="M5255 5729 c-4 -6 -5 -12 -2 -15 2 -3 7 2 10 11 7 17 1 20 -8 4z"/>
<path d="M5597 5733 c-10 -9 -9 -23 1 -23 5 0 9 7 9 15 0 17 -1 18 -10 8z"/>
<path d="M6010 5726 c0 -2 7 -7 16 -10 8 -3 12 -2 9 4 -6 10 -25 14 -25 6z"/>
<path d="M6330 5726 c0 -2 7 -7 16 -10 8 -3 12 -2 9 4 -6 10 -25 14 -25 6z"/>
<path d="M6665 5720 c-2 -3 5 -7 16 -7 10 -1 19 2 19 6 0 9 -29 10 -35 1z"/>
<path d="M7790 5717 c0 -2 6 -10 14 -16 11 -9 16 -9 22 1 4 7 4 10 -1 6 -4 -4
-14 -3 -22 3 -7 6 -13 9 -13 6z"/>
<path d="M3440 5700 c-9 -6 -10 -10 -3 -10 6 0 15 5 18 10 8 12 4 12 -15 0z"/>
<path d="M4510 5680 c0 -5 5 -10 11 -10 5 0 7 5 4 10 -3 6 -8 10 -11 10 -2 0
-4 -4 -4 -10z"/>
<path d="M7776 5673 c-6 -14 -5 -15 5 -6 7 7 10 15 7 18 -3 3 -9 -2 -12 -12z"/>
<path d="M4475 5660 c3 -5 8 -10 11 -10 2 0 4 5 4 10 0 6 -5 10 -11 10 -5 0
-7 -4 -4 -10z"/>
<path d="M6692 5665 c4 -4 3 -14 -3 -22 -7 -8 -8 -13 -1 -13 15 0 23 28 9 36
-7 4 -9 4 -5 -1z"/>
<path d="M6655 5620 c-3 -5 -1 -10 4 -10 6 0 11 5 11 10 0 6 -2 10 -4 10 -3 0
-8 -4 -11 -10z"/>
<path d="M3454 5606 c1 -8 5 -18 8 -22 4 -3 5 1 4 10 -1 8 -5 18 -8 22 -4 3
-5 -1 -4 -10z"/>
<path d="M7736 5605 c-9 -26 -7 -32 5 -12 6 10 9 21 6 23 -2 3 -7 -2 -11 -11z"/>
<path d="M6655 5589 c-4 -6 -5 -12 -2 -15 2 -3 7 2 10 11 7 17 1 20 -8 4z"/>
<path d="M3459 5538 c-5 -18 -6 -38 -1 -34 7 8 12 36 6 36 -2 0 -4 -1 -5 -2z"/>
<path d="M4485 5520 c3 -5 8 -10 11 -10 2 0 4 5 4 10 0 6 -5 10 -11 10 -5 0
-7 -4 -4 -10z"/>
<path d="M4470 5460 c0 -5 5 -10 11 -10 5 0 7 5 4 10 -3 6 -8 10 -11 10 -2 0
-4 -4 -4 -10z"/>
<path d="M6599 5453 c-13 -16 -12 -17 4 -4 9 7 17 15 17 17 0 8 -8 3 -21 -13z"/>
<path d="M4495 5440 c-2 -3 5 -7 16 -7 10 -1 19 2 19 6 0 9 -29 10 -35 1z"/>
<path d="M6615 5440 c-3 -5 -1 -10 4 -10 6 0 11 5 11 10 0 6 -2 10 -4 10 -3 0
-8 -4 -11 -10z"/>
<path d="M7655 5440 c-3 -5 -1 -10 4 -10 6 0 11 5 11 10 0 6 -2 10 -4 10 -3 0
-8 -4 -11 -10z"/>
<path d="M6580 5398 c0 -4 7 -8 15 -8 8 0 15 4 15 8 0 5 -7 9 -15 9 -8 0 -15
-4 -15 -9z"/>
<path d="M4470 5375 c-11 -13 -10 -14 4 -9 9 3 16 10 16 15 0 13 -6 11 -20 -6z"/>
<path d="M6526 5382 c-3 -5 1 -9 9 -9 8 0 12 4 9 9 -3 4 -7 8 -9 8 -2 0 -6 -4
-9 -8z"/>
<path d="M6576 5367 c3 -10 9 -15 12 -12 3 3 0 11 -7 18 -10 9 -11 8 -5 -6z"/>
<path d="M7656 5367 c3 -10 9 -15 12 -12 3 3 0 11 -7 18 -10 9 -11 8 -5 -6z"/>
<path d="M6552 5347 c-8 -10 -6 -13 11 -14 12 0 16 1 9 4 -6 3 -10 9 -6 14 8
14 -2 11 -14 -4z"/>
<path d="M4479 5313 c-12 -16 -12 -17 2 -6 9 7 20 9 24 5 5 -4 5 -1 1 6 -9 16
-11 15 -27 -5z"/>
<path d="M3436 5262 c-2 -4 -1 -14 4 -22 7 -11 9 -9 7 8 -1 24 -3 26 -11 14z"/>
<path d="M6470 5261 c0 -6 4 -13 10 -16 6 -3 7 1 4 9 -7 18 -14 21 -14 7z"/>
<path d="M4466 5252 c-3 -4 4 -9 15 -9 23 -2 25 3 4 10 -8 4 -16 3 -19 -1z"/>
<path d="M6510 5225 c-11 -13 -10 -14 4 -9 9 3 16 10 16 15 0 13 -6 11 -20 -6z"/>
<path d="M4470 5222 c0 -5 7 -9 15 -9 8 0 12 4 9 9 -3 4 -9 8 -15 8 -5 0 -9
-4 -9 -8z"/>
<path d="M6475 5211 c-3 -5 -2 -12 3 -15 5 -3 9 1 9 9 0 17 -3 19 -12 6z"/>
<path d="M7590 5200 c0 -5 5 -10 10 -10 6 0 10 5 10 10 0 6 -4 10 -10 10 -5 0
-10 -4 -10 -10z"/>
<path d="M4476 5178 c3 -5 10 -6 15 -3 13 9 11 12 -6 12 -8 0 -12 -4 -9 -9z"/>
<path d="M7547 5159 c7 -7 15 -10 18 -7 3 3 -2 9 -12 12 -14 6 -15 5 -6 -5z"/>
<path d="M6416 5107 c3 -10 9 -15 12 -12 3 3 0 11 -7 18 -10 9 -11 8 -5 -6z"/>
<path d="M7521 5113 c-1 -17 16 -25 25 -12 4 7 3 9 -4 5 -5 -3 -13 0 -15 6 -4
9 -6 10 -6 1z"/>
<path d="M4470 5103 c0 -21 45 -40 55 -23 3 5 -4 7 -15 5 -11 -2 -24 3 -30 13
-5 9 -10 12 -10 5z"/>
<path d="M7555 5060 c3 -5 8 -10 11 -10 2 0 4 5 4 10 0 6 -5 10 -11 10 -5 0
-7 -4 -4 -10z"/>
<path d="M6393 5045 c0 -8 4 -12 9 -9 5 3 6 10 3 15 -9 13 -12 11 -12 -6z"/>
<path d="M4510 5040 c0 -5 5 -10 11 -10 5 0 7 5 4 10 -3 6 -8 10 -11 10 -2 0
-4 -4 -4 -10z"/>
<path d="M6425 5039 c-4 -6 -5 -12 -2 -15 2 -3 7 2 10 11 7 17 1 20 -8 4z"/>
<path d="M7520 5040 c-9 -6 -10 -10 -3 -10 6 0 15 5 18 10 8 12 4 12 -15 0z"/>
<path d="M3439 5013 c-13 -16 -12 -17 4 -4 16 13 21 21 13 21 -2 0 -10 -8 -17
-17z"/>
<path d="M4470 5015 c-11 -13 -10 -14 4 -9 9 3 16 10 16 15 0 13 -6 11 -20 -6z"/>
<path d="M7476 5022 c-3 -5 1 -9 9 -9 8 0 12 4 9 9 -3 4 -7 8 -9 8 -2 0 -6 -4
-9 -8z"/>
<path d="M7510 5016 c0 -2 8 -10 18 -17 15 -13 16 -12 3 4 -13 16 -21 21 -21
13z"/>
<path d="M6395 5001 c-3 -5 -2 -12 3 -15 5 -3 9 1 9 9 0 17 -3 19 -12 6z"/>
<path d="M3455 4969 c-4 -6 -5 -12 -2 -15 2 -3 7 2 10 11 7 17 1 20 -8 4z"/>
<path d="M4479 4953 c-13 -16 -12 -17 4 -4 16 13 21 21 13 21 -2 0 -10 -8 -17
-17z"/>
<path d="M7450 4965 c0 -5 5 -17 10 -25 5 -8 10 -10 10 -5 0 6 -5 17 -10 25
-5 8 -10 11 -10 5z"/>
<path d="M6394 4952 c3 -5 0 -13 -6 -15 -9 -4 -10 -6 -1 -6 17 -1 25 16 12 25
-7 4 -9 3 -5 -4z"/>
<path d="M6355 4910 c-4 -6 -11 -7 -17 -4 -7 4 -8 2 -4 -5 6 -9 11 -9 22 0 14
11 18 19 10 19 -3 0 -8 -5 -11 -10z"/>
<path d="M3453 4872 c-1 -22 0 -24 9 -8 6 10 6 22 2 26 -5 5 -10 -3 -11 -18z"/>
<path d="M4488 4883 c6 -2 9 -10 6 -15 -4 -7 -2 -8 5 -4 13 9 5 26 -12 25 -9
0 -8 -2 1 -6z"/>
<path d="M6371 4874 c0 -11 3 -14 6 -6 3 7 2 16 -1 19 -3 4 -6 -2 -5 -13z"/>
<path d="M4494 4800 c0 -13 4 -16 10 -10 7 7 7 13 0 20 -6 6 -10 3 -10 -10z"/>
<path d="M3430 4786 c0 -2 7 -7 16 -10 8 -3 12 -2 9 4 -6 10 -25 14 -25 6z"/>
<path d="M7360 4700 c-9 -6 -10 -10 -3 -10 6 0 15 5 18 10 8 12 4 12 -15 0z"/>
<path d="M4470 4663 c0 -5 5 -15 10 -23 7 -12 9 -10 7 8 -1 19 -17 33 -17 15z"/>
<path d="M6242 4624 c10 -10 20 -16 22 -13 3 3 -5 11 -17 18 -21 13 -21 12 -5
-5z"/>
<path d="M6216 4593 c-6 -14 -5 -15 5 -6 7 7 10 15 7 18 -3 3 -9 -2 -12 -12z"/>
<path d="M7296 4593 c-6 -14 -5 -15 5 -6 7 7 10 15 7 18 -3 3 -9 -2 -12 -12z"/>
<path d="M4493 4565 c0 -8 4 -12 9 -9 5 3 6 10 3 15 -9 13 -12 11 -12 -6z"/>
<path d="M7278 4558 c-9 -5 -6 -7 9 -5 12 2 25 6 28 8 8 9 -23 6 -37 -3z"/>
<path d="M2466 4538 c3 -5 10 -6 15 -3 13 9 11 12 -6 12 -8 0 -12 -4 -9 -9z"/>
<path d="M6201 4536 c-9 -11 -9 -16 1 -22 7 -4 10 -4 6 1 -4 4 -3 14 3 22 6 7
9 13 6 13 -2 0 -10 -6 -16 -14z"/>
<path d="M7295 4529 c-4 -6 -5 -12 -2 -15 2 -3 7 2 10 11 7 17 1 20 -8 4z"/>
<path d="M3416 4493 c-6 -14 -5 -15 5 -6 7 7 10 15 7 18 -3 3 -9 -2 -12 -12z"/>
<path d="M2385 4479 c-3 -4 2 -6 10 -5 21 3 28 13 10 13 -9 0 -18 -4 -20 -8z"/>
<path d="M4456 4477 c3 -10 9 -15 12 -12 3 3 0 11 -7 18 -10 9 -11 8 -5 -6z"/>
<path d="M6180 4480 c0 -5 5 -10 11 -10 5 0 7 5 4 10 -3 6 -8 10 -11 10 -2 0
-4 -4 -4 -10z"/>
<path d="M7264 4482 c4 -3 14 -7 22 -8 9 -1 13 0 10 4 -4 3 -14 7 -22 8 -9 1
-13 0 -10 -4z"/>
<path d="M7235 4460 c3 -5 8 -10 11 -10 2 0 4 5 4 10 0 6 -5 10 -11 10 -5 0
-7 -4 -4 -10z"/>
<path d="M2373 4445 c0 -8 4 -12 9 -9 5 3 6 10 3 15 -9 13 -12 11 -12 -6z"/>
<path d="M2294 4423 c4 -4 16 -8 28 -10 28 -4 18 6 -12 12 -12 2 -20 1 -16 -2z"/>
<path d="M7246 4422 c-3 -5 1 -9 9 -9 8 0 12 4 9 9 -3 4 -7 8 -9 8 -2 0 -6 -4
-9 -8z"/>
<path d="M2631 4394 c0 -11 3 -14 6 -6 3 7 2 16 -1 19 -3 4 -6 -2 -5 -13z"/>
<path d="M4470 4402 c0 -5 7 -9 15 -9 8 0 12 4 9 9 -3 4 -9 8 -15 8 -5 0 -9
-4 -9 -8z"/>
<path d="M2306 4378 c3 -5 10 -6 15 -3 13 9 11 12 -6 12 -8 0 -12 -4 -9 -9z"/>
<path d="M2275 4370 c3 -5 8 -10 11 -10 2 0 4 5 4 10 0 6 -5 10 -11 10 -5 0
-7 -4 -4 -10z"/>
<path d="M2650 4370 c-9 -6 -10 -10 -3 -10 6 0 15 5 18 10 8 12 4 12 -15 0z"/>
<path d="M7222 4364 c10 -10 20 -16 22 -13 3 3 -5 11 -17 18 -21 13 -21 12 -5
-5z"/>
<path d="M2240 4366 c0 -2 8 -10 18 -17 15 -13 16 -12 3 4 -13 16 -21 21 -21
13z"/>
<path d="M2677 4363 c-11 -11 -8 -21 9 -27 13 -5 14 -4 6 7 -7 8 -9 17 -5 20
3 4 4 7 1 7 -2 0 -8 -3 -11 -7z"/>
<path d="M2720 4335 c-7 -9 -11 -17 -9 -20 3 -2 10 5 17 15 14 24 10 26 -8 5z"/>
<path d="M3433 4333 c4 -3 -1 -12 -11 -20 -15 -13 -15 -13 6 -3 19 9 23 30 5
30 -4 0 -3 -3 0 -7z"/>
<path d="M2160 4320 c-9 -6 -10 -10 -3 -10 6 0 15 5 18 10 8 12 4 12 -15 0z"/>
<path d="M2239 4313 c-13 -16 -12 -17 4 -4 9 7 17 15 17 17 0 8 -8 3 -21 -13z"/>
<path d="M6079 4313 c-13 -16 -12 -17 4 -4 9 7 17 15 17 17 0 8 -8 3 -21 -13z"/>
<path d="M2193 4293 c0 -9 4 -10 14 -2 7 6 13 12 13 14 0 1 -6 2 -13 2 -8 0
-14 -6 -14 -14z"/>
<path d="M2736 4298 c3 -4 11 -5 19 -1 21 7 19 12 -4 10 -11 0 -18 -5 -15 -9z"/>
<path d="M3370 4300 c0 -5 5 -10 11 -10 5 0 7 5 4 10 -3 6 -8 10 -11 10 -2 0
-4 -4 -4 -10z"/>
<path d="M3410 4280 c0 -5 5 -10 11 -10 5 0 7 5 4 10 -3 6 -8 10 -11 10 -2 0
-4 -4 -4 -10z"/>
<path d="M6090 4279 c0 -5 5 -7 10 -4 6 3 10 8 10 11 0 2 -4 4 -10 4 -5 0 -10
-5 -10 -11z"/>
<path d="M3386 4262 c-3 -4 4 -9 15 -9 23 -2 25 3 4 10 -8 4 -16 3 -19 -1z"/>
<path d="M2846 4238 c3 -5 10 -6 15 -3 13 9 11 12 -6 12 -8 0 -12 -4 -9 -9z"/>
<path d="M7151 4227 c-13 -21 -12 -21 5 -5 10 10 16 20 13 22 -3 3 -11 -5 -18
-17z"/>
<path d="M2865 4220 c-3 -6 1 -7 9 -4 18 7 21 14 7 14 -6 0 -13 -4 -16 -10z"/>
<path d="M2894 4209 c-3 -6 -2 -15 3 -20 5 -5 9 -1 9 11 0 23 -2 24 -12 9z"/>
<path d="M2933 4195 c0 -8 4 -12 9 -9 5 3 6 10 3 15 -9 13 -12 11 -12 -6z"/>
<path d="M2995 4181 c-3 -5 -2 -12 3 -15 5 -3 9 1 9 9 0 17 -3 19 -12 6z"/>
<path d="M3290 4180 c0 -5 5 -10 11 -10 5 0 7 5 4 10 -3 6 -8 10 -11 10 -2 0
-4 -4 -4 -10z"/>
<path d="M3356 4173 c-6 -14 -5 -15 5 -6 7 7 10 15 7 18 -3 3 -9 -2 -12 -12z"/>
<path d="M4436 4178 c3 -4 0 -8 -7 -8 -8 0 -7 -5 2 -17 8 -9 13 -18 11 -20 -2
-3 -1 -7 2 -10 3 -3 3 5 1 17 -3 13 0 29 5 35 7 8 5 12 -5 12 -8 0 -12 -4 -9
-9z"/>
<path d="M6061 4164 c0 -11 3 -14 6 -6 3 7 2 16 -1 19 -3 4 -6 -2 -5 -13z"/>
<path d="M7133 4165 c0 -8 4 -12 9 -9 5 3 6 10 3 15 -9 13 -12 11 -12 -6z"/>
<path d="M2031 4147 c-13 -21 -12 -21 5 -5 10 10 16 20 13 22 -3 3 -11 -5 -18
-17z"/>
<path d="M2973 4149 c-2 -23 3 -25 10 -4 4 8 3 16 -1 19 -4 3 -9 -4 -9 -15z"/>
<path d="M6035 4163 c3 -3 0 -11 -5 -18 -7 -8 -5 -12 4 -12 14 0 16 22 3 32
-4 3 -5 2 -2 -2z"/>
<path d="M3300 4156 c0 -2 7 -7 16 -10 8 -3 12 -2 9 4 -6 10 -25 14 -25 6z"/>
<path d="M3173 4143 c4 -6 0 -16 -8 -23 -18 -15 -20 -30 -3 -30 6 0 8 3 5 7
-4 3 0 14 9 24 12 13 12 19 3 25 -7 4 -10 3 -6 -3z"/>
<path d="M3056 4125 c4 -8 11 -15 16 -15 6 0 5 6 -2 15 -7 8 -14 15 -16 15 -2
0 -1 -7 2 -15z"/>
<path d="M3291 4133 c-1 -17 16 -25 25 -12 4 7 3 9 -4 5 -5 -3 -13 0 -15 6 -4
9 -6 10 -6 1z"/>
<path d="M3090 4118 c0 -4 4 -8 9 -8 6 0 12 4 15 8 3 5 -1 9 -9 9 -8 0 -15 -4
-15 -9z"/>
<path d="M3198 4103 c7 -3 16 -2 19 1 4 3 -2 6 -13 5 -11 0 -14 -3 -6 -6z"/>
<path d="M5993 4090 c-1 -11 2 -22 6 -24 4 -3 7 4 6 14 -2 27 -10 33 -12 10z"/>
<path d="M7069 4083 c-13 -16 -12 -17 4 -4 16 13 21 21 13 21 -2 0 -10 -8 -17
-17z"/>
<path d="M1870 4039 c0 -5 5 -7 10 -4 6 3 10 8 10 11 0 2 -4 4 -10 4 -5 0 -10
-5 -10 -11z"/>
<path d="M1900 4015 c0 -7 30 -13 34 -7 3 4 -4 9 -15 9 -10 1 -19 0 -19 -2z"/>
<path d="M1878 3983 c7 -3 16 -2 19 1 4 3 -2 6 -13 5 -11 0 -14 -3 -6 -6z"/>
<path d="M1770 3920 c0 -5 5 -10 11 -10 5 0 7 5 4 10 -3 6 -8 10 -11 10 -2 0
-4 -4 -4 -10z"/>
<path d="M5915 3920 c-3 -5 -1 -10 4 -10 6 0 11 5 11 10 0 6 -2 10 -4 10 -3 0
-8 -4 -11 -10z"/>
<path d="M1799 3893 c-13 -16 -12 -17 4 -4 9 7 17 15 17 17 0 8 -8 3 -21 -13z"/>
<path d="M5915 3889 c-4 -6 -5 -12 -2 -15 2 -3 7 2 10 11 7 17 1 20 -8 4z"/>
<path d="M4376 3853 c-6 -14 -5 -15 5 -6 7 7 10 15 7 18 -3 3 -9 -2 -12 -12z"/>
<path d="M1750 3840 c0 -5 5 -10 11 -10 5 0 7 5 4 10 -3 6 -8 10 -11 10 -2 0
-4 -4 -4 -10z"/>
<path d="M4370 3819 c0 -5 5 -7 10 -4 6 3 10 8 10 11 0 2 -4 4 -10 4 -5 0 -10
-5 -10 -11z"/>
<path d="M1795 3801 c-3 -5 -2 -12 3 -15 5 -3 9 1 9 9 0 17 -3 19 -12 6z"/>
<path d="M5880 3800 c-12 -7 -10 -9 7 -7 12 0 19 5 17 9 -6 10 -6 10 -24 -2z"/>
<path d="M6940 3805 c0 -7 30 -13 34 -7 3 4 -4 9 -15 9 -10 1 -19 0 -19 -2z"/>
<path d="M4307 3747 c-6 -15 28 -17 40 -1 5 5 4 6 -1 2 -5 -4 -15 -3 -21 2 -9
7 -14 6 -18 -3z"/>
<path d="M1853 3705 c0 -8 4 -12 9 -9 5 3 6 10 3 15 -9 13 -12 11 -12 -6z"/>
<path d="M4296 3702 c-3 -5 1 -9 9 -9 8 0 12 4 9 9 -3 4 -7 8 -9 8 -2 0 -6 -4
-9 -8z"/>
<path d="M1963 3645 c0 -8 4 -12 9 -9 5 3 6 10 3 15 -9 13 -12 11 -12 -6z"/>
<path d="M4270 3646 c0 -2 7 -7 16 -10 8 -3 12 -2 9 4 -6 10 -25 14 -25 6z"/>
<path d="M4237 3627 c-3 -8 1 -14 8 -14 7 0 11 6 8 14 -3 7 -6 13 -8 13 -2 0
-5 -6 -8 -13z"/>
<path d="M1996 3603 c-6 -14 -5 -15 5 -6 7 7 10 15 7 18 -3 3 -9 -2 -12 -12z"/>
<path d="M5795 3600 c-3 -5 -1 -10 4 -10 6 0 11 5 11 10 0 6 -2 10 -4 10 -3 0
-8 -4 -11 -10z"/>
<path d="M6855 3599 c-3 -4 2 -6 10 -5 21 3 28 13 10 13 -9 0 -18 -4 -20 -8z"/>
<path d="M2010 3579 c0 -5 5 -7 10 -4 6 3 10 8 10 11 0 2 -4 4 -10 4 -5 0 -10
-5 -10 -11z"/>
<path d="M6916 3573 c-6 -14 -5 -15 5 -6 7 7 10 15 7 18 -3 3 -9 -2 -12 -12z"/>
<path d="M5764 3562 c23 -26 23 -26 23 -7 0 8 -3 13 -5 10 -3 -3 -12 1 -21 7
-10 8 -9 4 3 -10z"/>
<path d="M2033 3555 c0 -8 4 -12 9 -9 5 3 6 10 3 15 -9 13 -12 11 -12 -6z"/>
<path d="M4213 3555 c0 -8 4 -12 9 -9 4 3 8 9 8 15 0 5 -4 9 -8 9 -5 0 -9 -7
-9 -15z"/>
<path d="M4185 3480 c-3 -6 1 -7 9 -4 18 7 21 14 7 14 -6 0 -13 -4 -16 -10z"/>
<path d="M2110 3459 c0 -5 5 -7 10 -4 6 3 10 8 10 11 0 2 -4 4 -10 4 -5 0 -10
-5 -10 -11z"/>
<path d="M2149 3457 c6 -8 7 -18 3 -22 -4 -5 -1 -5 6 -1 10 6 10 11 1 22 -6 8
-14 14 -16 14 -3 0 0 -6 6 -13z"/>
<path d="M4110 3460 c0 -5 5 -10 11 -10 5 0 7 5 4 10 -3 6 -8 10 -11 10 -2 0
-4 -4 -4 -10z"/>
<path d="M2177 3440 c-3 -11 -2 -22 2 -24 4 -3 8 6 9 20 2 29 -4 31 -11 4z"/>
<path d="M4075 3409 c-4 -6 -5 -12 -2 -15 2 -3 7 2 10 11 7 17 1 20 -8 4z"/>
<path d="M5715 3370 c-4 -6 -10 -8 -15 -5 -5 3 -11 1 -14 -4 -8 -13 22 -7 36
7 7 7 9 12 6 12 -4 0 -10 -5 -13 -10z"/>
<path d="M6757 3366 c-7 -18 18 -42 28 -26 4 6 1 9 -7 8 -8 -2 -12 4 -10 15 3
21 -4 23 -11 3z"/>
<path d="M2275 3360 c-4 -6 -1 -9 7 -8 7 2 12 -3 10 -10 -1 -8 2 -11 8 -7 8 5
7 11 -1 21 -14 17 -16 17 -24 4z"/>
<path d="M2357 3339 c7 -7 15 -10 18 -7 3 3 -2 9 -12 12 -14 6 -15 5 -6 -5z"/>
<path d="M5655 3340 c3 -5 8 -10 11 -10 2 0 4 5 4 10 0 6 -5 10 -11 10 -5 0
-7 -4 -4 -10z"/>
<path d="M2330 3336 c0 -2 8 -10 18 -17 15 -13 16 -12 3 4 -13 16 -21 21 -21
13z"/>
<path d="M3955 3299 c-3 -4 2 -6 10 -5 21 3 28 13 10 13 -9 0 -18 -4 -20 -8z"/>
<path d="M6770 3300 c0 -5 5 -10 11 -10 5 0 7 5 4 10 -3 6 -8 10 -11 10 -2 0
-4 -4 -4 -10z"/>
<path d="M5610 3285 c0 -5 5 -17 10 -25 5 -8 10 -10 10 -5 0 6 -5 17 -10 25
-5 8 -10 11 -10 5z"/>
<path d="M2435 3271 c-3 -5 -2 -12 3 -15 5 -3 9 1 9 9 0 17 -3 19 -12 6z"/>
<path d="M2470 3245 c0 -7 30 -13 34 -7 3 4 -4 9 -15 9 -10 1 -19 0 -19 -2z"/>
<path d="M3816 3241 c-3 -4 4 -7 14 -6 27 2 33 10 10 12 -11 1 -22 -2 -24 -6z"/>
<path d="M5640 3235 c-11 -13 -10 -14 4 -9 9 3 16 10 16 15 0 13 -6 11 -20 -6z"/>
<path d="M2515 3220 c3 -5 8 -10 11 -10 2 0 4 5 4 10 0 6 -5 10 -11 10 -5 0
-7 -4 -4 -10z"/>
<path d="M2609 3203 c-13 -16 -12 -17 4 -4 16 13 21 21 13 21 -2 0 -10 -8 -17
-17z"/>
<path d="M3710 3201 c0 -6 4 -13 10 -16 6 -3 7 1 4 9 -7 18 -14 21 -14 7z"/>
<path d="M3776 3198 c3 -5 10 -6 15 -3 13 9 11 12 -6 12 -8 0 -12 -4 -9 -9z"/>
<path d="M6713 3193 c0 -9 4 -10 14 -2 7 6 13 12 13 14 0 1 -6 2 -13 2 -8 0
-14 -6 -14 -14z"/>
<path d="M2633 3185 c0 -8 4 -12 9 -9 5 3 6 10 3 15 -9 13 -12 11 -12 -6z"/>
<path d="M2668 3183 c6 -2 18 -2 25 0 6 3 1 5 -13 5 -14 0 -19 -2 -12 -5z"/>
<path d="M2810 3160 c0 -5 5 -10 11 -10 5 0 7 5 4 10 -3 6 -8 10 -11 10 -2 0
-4 -4 -4 -10z"/>
<path d="M3680 3160 c-9 -6 -10 -10 -3 -10 6 0 15 5 18 10 8 12 4 12 -15 0z"/>
<path d="M6679 3163 c0 -5 -2 -16 -4 -26 -2 -11 -1 -16 3 -13 8 8 14 46 7 46
-3 0 -5 -3 -6 -7z"/>
<path d="M6713 3147 c0 -8 6 -14 14 -14 9 0 10 4 2 14 -6 7 -12 13 -14 13 -1
0 -2 -6 -2 -13z"/>
<path d="M2776 3138 c3 -5 10 -6 15 -3 13 9 11 12 -6 12 -8 0 -12 -4 -9 -9z"/>
<path d="M2830 3137 c0 -2 6 -10 14 -16 11 -9 16 -9 22 1 4 7 4 10 -1 6 -4 -4
-14 -3 -22 3 -7 6 -13 9 -13 6z"/>
<path d="M3480 3120 c8 -5 20 -10 25 -10 6 0 3 5 -5 10 -8 5 -19 10 -25 10 -5
0 -3 -5 5 -10z"/>
<path d="M3595 3120 c-3 -5 -1 -10 4 -10 6 0 11 5 11 10 0 6 -2 10 -4 10 -3 0
-8 -4 -11 -10z"/>
<path d="M3191 3107 c-8 -10 -7 -14 2 -14 8 0 14 6 14 14 0 7 -1 13 -2 13 -2
0 -8 -6 -14 -13z"/>
<path d="M3350 3110 c0 -5 5 -10 11 -10 5 0 7 5 4 10 -3 6 -8 10 -11 10 -2 0
-4 -4 -4 -10z"/>
<path d="M3116 3093 c-6 -14 -5 -15 5 -6 7 7 10 15 7 18 -3 3 -9 -2 -12 -12z"/>
<path d="M5599 3093 c-13 -16 -12 -17 4 -4 16 13 21 21 13 21 -2 0 -10 -8 -17
-17z"/>
<path d="M6637 3093 c-10 -9 -9 -23 1 -23 5 0 9 7 9 15 0 17 -1 18 -10 8z"/>
<path d="M3035 3080 c3 -5 8 -10 11 -10 2 0 4 5 4 10 0 6 -5 10 -11 10 -5 0
-7 -4 -4 -10z"/>
<path d="M5570 3085 c0 -5 5 -17 10 -25 5 -8 10 -10 10 -5 0 6 -5 17 -10 25
-5 8 -10 11 -10 5z"/>
<path d="M6675 3069 c-4 -6 -5 -12 -2 -15 2 -3 7 2 10 11 7 17 1 20 -8 4z"/>
<path d="M5536 3058 c3 -5 10 -6 15 -3 13 9 11 12 -6 12 -8 0 -12 -4 -9 -9z"/>
<path d="M6616 3002 c-3 -5 1 -9 9 -9 8 0 12 4 9 9 -3 4 -7 8 -9 8 -2 0 -6 -4
-9 -8z"/>
<path d="M6625 2960 c-3 -6 1 -7 9 -4 18 7 21 14 7 14 -6 0 -13 -4 -16 -10z"/>
<path d="M6588 2943 c7 -3 16 -2 19 1 4 3 -2 6 -13 5 -11 0 -14 -3 -6 -6z"/>
<path d="M6540 2886 c0 -2 7 -7 16 -10 8 -3 12 -2 9 4 -6 10 -25 14 -25 6z"/>
<path d="M6595 2860 c-3 -5 -1 -10 4 -10 6 0 11 5 11 10 0 6 -2 10 -4 10 -3 0
-8 -4 -11 -10z"/>
<path d="M6530 2838 c0 -6 3 -8 7 -5 3 4 11 2 18 -3 8 -7 12 -6 12 3 0 7 -9
14 -19 14 -10 1 -18 -3 -18 -9z"/>
<path d="M6530 2779 c0 -5 5 -7 10 -4 6 3 10 8 10 11 0 2 -4 4 -10 4 -5 0 -10
-5 -10 -11z"/>
<path d="M5435 2771 c-6 -11 13 -26 22 -17 4 3 1 6 -6 6 -7 0 -9 5 -6 10 3 6
4 10 1 10 -3 0 -7 -4 -11 -9z"/>
<path d="M5414 2738 c-4 -7 -3 -8 4 -4 16 10 15 -6 0 -24 -7 -8 -3 -6 10 4 26
23 26 22 7 29 -8 4 -17 1 -21 -5z"/>
<path d="M6519 2745 c-1 -3 -3 -9 -4 -15 -1 -5 -3 -15 -4 -21 0 -5 -6 -7 -13
-3 -7 5 -8 3 -3 -5 9 -16 24 -2 30 27 3 18 -2 33 -6 17z"/>
<path d="M6470 2720 c-10 -18 -9 -25 4 -38 9 -9 16 -11 16 -5 0 6 -6 13 -12
16 -10 3 -10 8 1 21 8 9 11 19 8 22 -3 3 -11 -4 -17 -16z"/>
<path d="M7316 2713 c-6 -14 -5 -15 5 -6 7 7 10 15 7 18 -3 3 -9 -2 -12 -12z"/>
<path d="M5370 2700 c0 -5 5 -10 11 -10 5 0 7 5 4 10 -3 6 -8 10 -11 10 -2 0
-4 -4 -4 -10z"/>
<path d="M5395 2680 c-3 -5 -3 -10 2 -10 4 0 1 -5 -7 -11 -12 -8 -12 -10 -1
-7 8 2 15 12 17 21 3 19 -2 22 -11 7z"/>
<path d="M6673 2675 c0 -8 4 -12 9 -9 5 3 6 10 3 15 -9 13 -12 11 -12 -6z"/>
<path d="M6753 2675 c0 -8 4 -12 9 -9 5 3 6 10 3 15 -9 13 -12 11 -12 -6z"/>
<path d="M6795 2680 c-3 -5 -1 -10 4 -10 6 0 11 5 11 10 0 6 -2 10 -4 10 -3 0
-8 -4 -11 -10z"/>
<path d="M7553 2675 c0 -8 4 -12 9 -9 5 3 6 10 3 15 -9 13 -12 11 -12 -6z"/>
<path d="M7595 2680 c-3 -5 -1 -10 4 -10 6 0 11 5 11 10 0 6 -2 10 -4 10 -3 0
-8 -4 -11 -10z"/>
<path d="M6512 2671 c-11 -7 -11 -9 0 -14 9 -3 15 1 15 9 0 8 -1 14 -1 14 -1
0 -7 -4 -14 -9z"/>
<path d="M6713 2665 c0 -8 4 -15 9 -15 4 0 8 4 8 9 0 6 -4 12 -8 15 -5 3 -9
-1 -9 -9z"/>
<path d="M6471 2653 c7 -10 15 -20 16 -22 2 -2 3 3 3 11 0 9 -7 19 -16 22 -15
6 -15 4 -3 -11z"/>
<path d="M6585 2660 c-3 -6 1 -7 9 -4 18 7 21 14 7 14 -6 0 -13 -4 -16 -10z"/>
<path d="M7106 2662 c-2 -4 4 -8 14 -8 10 0 16 4 14 8 -3 4 -9 8 -14 8 -5 0
-11 -4 -14 -8z"/>
<path d="M7185 2660 c-3 -6 1 -7 9 -4 18 7 21 14 7 14 -6 0 -13 -4 -16 -10z"/>
<path d="M7693 2655 c-3 -9 -3 -18 -1 -21 3 -3 8 4 11 16 6 23 -1 27 -10 5z"/>
<path d="M6537 2646 c-4 -9 -3 -15 2 -11 5 3 11 0 13 -7 3 -7 7 -5 11 6 4 9 3
15 -2 11 -5 -3 -11 0 -13 7 -3 7 -7 5 -11 -6z"/>
<path d="M7235 2649 c-4 -6 -5 -12 -2 -15 2 -3 7 2 10 11 7 17 1 20 -8 4z"/>
<path d="M7315 2649 c-4 -6 -5 -12 -2 -15 2 -3 7 2 10 11 7 17 1 20 -8 4z"/>
<path d="M7394 2643 c1 -7 4 -14 7 -15 2 -2 3 -1 2 1 -2 2 4 9 13 15 13 10 13
12 -4 12 -11 0 -19 -6 -18 -13z"/>
<path d="M6618 2643 c6 -2 9 -10 6 -15 -4 -7 -2 -8 5 -4 13 9 5 26 -12 25 -9
0 -8 -2 1 -6z"/>
<path d="M6910 2641 c0 -6 4 -13 10 -16 6 -3 7 1 4 9 -7 18 -14 21 -14 7z"/>
<path d="M7500 2646 c0 -2 8 -10 18 -17 15 -13 16 -12 3 4 -13 16 -21 21 -21
13z"/>
<path d="M7630 2641 c0 -6 4 -13 10 -16 6 -3 7 1 4 9 -7 18 -14 21 -14 7z"/>
<path d="M7755 2641 c-3 -5 -2 -12 3 -15 5 -3 9 1 9 9 0 17 -3 19 -12 6z"/>
<path d="M7860 2646 c0 -2 8 -10 18 -17 15 -13 16 -12 3 4 -13 16 -21 21 -21
13z"/>
<path d="M5375 2611 c-3 -5 -2 -12 3 -15 5 -3 9 1 9 9 0 17 -3 19 -12 6z"/>
<path d="M5335 2600 c3 -5 8 -10 11 -10 2 0 4 5 4 10 0 6 -5 10 -11 10 -5 0
-7 -4 -4 -10z"/>
<path d="M5320 2520 c-12 -7 -10 -9 7 -7 12 0 19 5 17 9 -6 10 -6 10 -24 -2z"/>
<path d="M5274 2434 c1 -8 4 -15 7 -16 2 -2 3 -1 2 1 -2 2 2 9 7 16 7 8 5 12
-4 12 -8 0 -13 -6 -12 -13z"/>
<path d="M8116 2381 c-3 -5 1 -14 8 -20 10 -9 16 -9 21 -1 4 6 1 9 -7 8 -7 -2
-12 3 -10 10 2 14 -4 16 -12 3z"/>
<path d="M5262 2360 c0 -14 2 -19 5 -12 2 6 2 18 0 25 -3 6 -5 1 -5 -13z"/>
<path d="M8110 2326 c0 -8 4 -17 9 -20 5 -4 7 3 4 14 -6 23 -13 26 -13 6z"/>
<path d="M5236 2303 c-6 -14 -5 -15 5 -6 7 7 10 15 7 18 -3 3 -9 -2 -12 -12z"/>
<path d="M5195 2291 c-3 -5 -2 -12 3 -15 5 -3 9 1 9 9 0 17 -3 19 -12 6z"/>
<path d="M5193 2245 c0 -8 4 -12 9 -9 5 3 6 10 3 15 -9 13 -12 11 -12 -6z"/>
<path d="M8113 2195 c0 -14 3 -25 8 -25 4 0 6 10 4 21 -6 32 -12 34 -12 4z"/>
<path d="M5158 2131 c4 -10 7 -11 10 -3 2 7 8 10 12 7 5 -3 11 -2 14 3 2 4 -6
8 -19 8 -16 0 -21 -4 -17 -15z"/>
<path d="M5126 2085 c-18 -14 -18 -14 1 -12 11 0 20 7 20 14 0 7 -1 13 -1 13
-1 0 -9 -7 -20 -15z"/>
<path d="M8125 2060 c-4 -6 -11 -7 -17 -4 -7 4 -8 2 -4 -5 6 -9 11 -9 22 0 14
11 18 19 10 19 -3 0 -8 -5 -11 -10z"/>
<path d="M5117 2053 c-10 -9 -9 -23 1 -23 5 0 9 7 9 15 0 17 -1 18 -10 8z"/>
<path d="M8145 2020 c-3 -6 1 -7 9 -4 18 7 21 14 7 14 -6 0 -13 -4 -16 -10z"/>
<path d="M5076 1981 c-3 -5 2 -15 12 -22 15 -12 16 -12 5 2 -7 9 -10 19 -6 22
3 4 4 7 0 7 -3 0 -8 -4 -11 -9z"/>
<path d="M8116 1901 c-3 -5 1 -14 8 -20 10 -9 16 -9 21 -1 4 6 1 9 -7 8 -7 -2
-12 3 -10 10 2 14 -4 16 -12 3z"/>
<path d="M5038 1873 c7 -3 16 -2 19 1 4 3 -2 6 -13 5 -11 0 -14 -3 -6 -6z"/>
<path d="M4986 1858 c3 -5 10 -6 15 -3 13 9 11 12 -6 12 -8 0 -12 -4 -9 -9z"/>
<path d="M8111 1849 c-1 -23 25 -44 35 -28 4 8 3 9 -5 5 -7 -4 -15 2 -20 16
-7 15 -10 17 -10 7z"/>
<path d="M4976 1722 c-2 -4 -1 -14 4 -22 7 -11 9 -9 7 8 -1 24 -3 26 -11 14z"/>
<path d="M5306 1660 c5 -8 9 -18 9 -22 0 -3 3 -9 7 -13 3 -4 5 0 4 9 -1 9 -8
22 -16 29 -10 10 -11 9 -4 -3z"/>
<path d="M5346 1658 c3 -4 11 -5 19 -1 21 7 19 12 -4 10 -11 0 -18 -5 -15 -9z"/>
<path d="M5398 1663 c7 -3 16 -2 19 1 4 3 -2 6 -13 5 -11 0 -14 -3 -6 -6z"/>
<path d="M5433 1653 c0 -9 4 -10 14 -2 7 6 13 12 13 14 0 1 -6 2 -13 2 -8 0
-14 -6 -14 -14z"/>
<path d="M5626 1660 c5 -8 9 -18 9 -22 0 -3 3 -9 7 -13 3 -4 5 0 4 9 -1 9 -8
22 -16 29 -10 10 -11 9 -4 -3z"/>
<path d="M5666 1658 c3 -4 11 -5 19 -1 21 7 19 12 -4 10 -11 0 -18 -5 -15 -9z"/>
<path d="M5718 1663 c7 -3 16 -2 19 1 4 3 -2 6 -13 5 -11 0 -14 -3 -6 -6z"/>
<path d="M5753 1653 c0 -9 4 -10 14 -2 7 6 13 12 13 14 0 1 -6 2 -13 2 -8 0
-14 -6 -14 -14z"/>
<path d="M5947 1659 c7 -7 15 -10 18 -7 3 3 -2 9 -12 12 -14 6 -15 5 -6 -5z"/>
<path d="M6247 1659 c7 -7 15 -10 18 -7 3 3 -2 9 -12 12 -14 6 -15 5 -6 -5z"/>
<path d="M6307 1659 c7 -7 15 -10 18 -7 3 3 -2 9 -12 12 -14 6 -15 5 -6 -5z"/>
<path d="M6427 1659 c7 -7 15 -10 18 -7 3 3 -2 9 -12 12 -14 6 -15 5 -6 -5z"/>
<path d="M6727 1659 c7 -7 15 -10 18 -7 3 3 -2 9 -12 12 -14 6 -15 5 -6 -5z"/>
<path d="M6787 1659 c7 -7 15 -10 18 -7 3 3 -2 9 -12 12 -14 6 -15 5 -6 -5z"/>
<path d="M6907 1659 c7 -7 15 -10 18 -7 3 3 -2 9 -12 12 -14 6 -15 5 -6 -5z"/>
<path d="M7039 1653 c-13 -16 -12 -17 4 -4 16 13 21 21 13 21 -2 0 -10 -8 -17
-17z"/>
<path d="M7226 1660 c5 -8 9 -18 9 -22 0 -3 3 -9 7 -13 3 -4 5 0 4 9 -1 9 -8
22 -16 29 -10 10 -11 9 -4 -3z"/>
<path d="M7266 1658 c3 -4 11 -5 19 -1 21 7 19 12 -4 10 -11 0 -18 -5 -15 -9z"/>
<path d="M7318 1663 c7 -3 16 -2 19 1 4 3 -2 6 -13 5 -11 0 -14 -3 -6 -6z"/>
<path d="M7353 1653 c0 -9 4 -10 14 -2 7 6 13 12 13 14 0 1 -6 2 -13 2 -8 0
-14 -6 -14 -14z"/>
<path d="M7546 1660 c5 -8 9 -18 9 -22 0 -3 3 -9 7 -13 3 -4 5 0 4 9 -1 9 -8
22 -16 29 -10 10 -11 9 -4 -3z"/>
<path d="M7586 1658 c3 -4 11 -5 19 -1 21 7 19 12 -4 10 -11 0 -18 -5 -15 -9z"/>
<path d="M7638 1663 c7 -3 16 -2 19 1 4 3 -2 6 -13 5 -11 0 -14 -3 -6 -6z"/>
<path d="M7673 1653 c0 -9 4 -10 14 -2 7 6 13 12 13 14 0 1 -6 2 -13 2 -8 0
-14 -6 -14 -14z"/>
<path d="M7866 1660 c5 -8 9 -18 9 -22 0 -3 3 -9 7 -13 3 -4 5 0 4 9 -1 9 -8
22 -16 29 -10 10 -11 9 -4 -3z"/>
<path d="M7906 1658 c3 -4 11 -5 19 -1 21 7 19 12 -4 10 -11 0 -18 -5 -15 -9z"/>
<path d="M7958 1663 c7 -3 16 -2 19 1 4 3 -2 6 -13 5 -11 0 -14 -3 -6 -6z"/>
<path d="M7998 1663 c7 -3 16 -2 19 1 4 3 -2 6 -13 5 -11 0 -14 -3 -6 -6z"/>
<path d="M5789 1643 c-13 -16 -12 -17 4 -4 16 13 21 21 13 21 -2 0 -10 -8 -17
-17z"/>
<path d="M5050 1646 c0 -2 7 -7 16 -10 8 -3 12 -2 9 4 -6 10 -25 14 -25 6z"/>
<path d="M5393 1635 c0 -8 4 -12 9 -9 5 3 6 10 3 15 -9 13 -12 11 -12 -6z"/>
<path d="M5713 1635 c0 -8 4 -12 9 -9 5 3 6 10 3 15 -9 13 -12 11 -12 -6z"/>
<path d="M7313 1635 c0 -8 4 -12 9 -9 5 3 6 10 3 15 -9 13 -12 11 -12 -6z"/>
<path d="M7633 1635 c0 -8 4 -12 9 -9 5 3 6 10 3 15 -9 13 -12 11 -12 -6z"/>
</g>
</svg>
